<svg xmlns="http://www.w3.org/2000/svg" width="48" height="48" viewBox="0 0 48 48">
  <path fill="#9B9B9B" fill-rule="evenodd" d="M28.228,23.985 L47.092,5.121 C48.264,3.95 48.264,2.05 47.092,0.879 C45.92,-0.293 44.022,-0.293 42.85,0.879 L23.986,19.743 L5.121,0.879 C3.949,-0.293 2.051,-0.293 0.879,0.879 C-0.293,2.05 -0.293,3.95 0.879,5.121 L19.744,23.985 L0.879,42.849 C-0.293,44.02 -0.293,45.92 0.879,47.091 C1.465,47.676 2.233,47.969 3,47.969 C3.767,47.969 4.535,47.676 5.121,47.09 L23.986,28.226 L42.85,47.09 C43.436,47.676 44.204,47.969 44.971,47.969 C45.738,47.969 46.506,47.676 47.092,47.09 C48.264,45.919 48.264,44.019 47.092,42.848 L28.228,23.985 Z"/>
</svg>
