<svg xmlns="http://www.w3.org/2000/svg" width="612" height="407" viewBox="0 0 612 407">
  <defs>
    <linearGradient id="home-graphic-a" x1="50.015%" x2="50.015%" y1="100%" y2=".008%">
      <stop offset="0%" stop-color="gray" stop-opacity=".25"/>
      <stop offset="54%" stop-color="gray" stop-opacity=".12"/>
      <stop offset="100%" stop-color="gray" stop-opacity=".1"/>
    </linearGradient>
    <linearGradient id="home-graphic-b" x1="-.005%" x2="100.018%" y1="50.028%" y2="50.028%">
      <stop offset="0%" stop-color="gray" stop-opacity=".25"/>
      <stop offset="54%" stop-color="gray" stop-opacity=".12"/>
      <stop offset="100%" stop-color="gray" stop-opacity=".1"/>
    </linearGradient>
    <linearGradient id="home-graphic-c" x1="50.004%" x2="50.004%" y1="100%" y2="0%">
      <stop offset="0%" stop-color="gray" stop-opacity=".25"/>
      <stop offset="54%" stop-color="gray" stop-opacity=".12"/>
      <stop offset="100%" stop-color="gray" stop-opacity=".1"/>
    </linearGradient>
    <linearGradient id="home-graphic-d" x1="50%" x2="50%" y1="100%" y2="0%">
      <stop offset="0%" stop-color="gray" stop-opacity=".25"/>
      <stop offset="54%" stop-color="gray" stop-opacity=".12"/>
      <stop offset="100%" stop-color="gray" stop-opacity=".1"/>
    </linearGradient>
    <linearGradient id="home-graphic-e" x1="50.009%" x2="50.009%" y1="100%" y2="0%">
      <stop offset="0%" stop-color="gray" stop-opacity=".25"/>
      <stop offset="54%" stop-color="gray" stop-opacity=".12"/>
      <stop offset="100%" stop-color="gray" stop-opacity=".1"/>
    </linearGradient>
    <linearGradient id="home-graphic-f" x1="50.043%" x2="50.043%" y1="100.192%" y2="0%">
      <stop offset="0%" stop-color="gray" stop-opacity=".25"/>
      <stop offset="54%" stop-color="gray" stop-opacity=".12"/>
      <stop offset="100%" stop-color="gray" stop-opacity=".1"/>
    </linearGradient>
    <linearGradient id="home-graphic-g" x1="49.992%" x2="49.992%" y1="100%" y2="0%">
      <stop offset="0%" stop-color="gray" stop-opacity=".25"/>
      <stop offset="54%" stop-color="gray" stop-opacity=".12"/>
      <stop offset="100%" stop-color="gray" stop-opacity=".1"/>
    </linearGradient>
    <linearGradient id="home-graphic-h" x1="49.984%" x2="49.984%" y1="100%" y2="0%">
      <stop offset="0%" stop-color="gray" stop-opacity=".25"/>
      <stop offset="54%" stop-color="gray" stop-opacity=".12"/>
      <stop offset="100%" stop-color="gray" stop-opacity=".1"/>
    </linearGradient>
    <linearGradient id="home-graphic-i" x1="49.993%" x2="49.993%" y1="99.983%" y2="0%">
      <stop offset="0%" stop-color="gray" stop-opacity=".25"/>
      <stop offset="54%" stop-color="gray" stop-opacity=".12"/>
      <stop offset="100%" stop-color="gray" stop-opacity=".1"/>
    </linearGradient>
  </defs>
  <g fill="none" fill-rule="evenodd">
    <path fill="url(#home-graphic-a)" fill-rule="nonzero" d="M301.066308,281.372698 C296.306351,264.117234 269.885038,251.397452 249.26803,248.111035 L249.26803,239.820463 L250.404736,239.380381 C250.297204,237.724796 249.964993,236.091488 249.417223,234.525286 C258.227995,230.940335 265.833272,224.920129 271.341442,217.17045 C283.080503,204.884548 288.644163,187.962322 286.48359,171.11465 C284.323017,154.266978 274.668913,139.292832 260.208827,130.360776 C264.239916,127.829839 266.197913,123.00579 265.069774,118.384537 C263.941636,113.763283 259.98047,110.381648 255.235737,109.989251 C259.116811,100.840864 256.241121,90.2271803 248.271122,84.2840326 C240.301122,78.3408849 229.298839,78.6059059 221.624758,84.9258854 C228.315496,81.3691381 236.383168,81.579193 242.87941,85.4792846 C249.375651,89.3793762 253.348462,96.3979611 253.345963,103.970068 C253.345963,104.161717 253.345963,104.346267 253.345963,104.530817 C253.097842,95.9909223 247.828477,88.4020564 239.909112,85.1792515 C231.989748,81.9564466 222.91288,83.7070777 216.763149,89.643351 C210.613419,95.5796244 208.549814,104.58278 211.500969,112.601349 C208.144954,113.32094 205.331714,115.592699 203.923633,118.72023 C202.515552,121.847761 202.680583,125.458016 204.368138,128.444291 C188.530462,136.756816 177.58127,152.085822 174.862647,169.752348 C172.144025,187.418874 177.978646,205.326073 190.585576,218.008024 C195.82921,225.066402 202.842423,230.619098 210.918407,234.106499 L210.918407,247.926485 C190.081163,250.900586 162.643918,263.854605 157.855544,281.535954 C153.678149,296.945913 149.216577,313.867766 147,323.805095 C166.018515,337.156608 205.924004,345 230.938644,345 C254.702906,345 293.542734,337.901907 312,325.764169 C310.024973,314.847302 305.428418,297.18015 301.066308,281.372698 Z M262.972443,121.963733 C262.972443,122.162479 262.972443,122.354128 262.972443,122.545776 C262.683297,117.528468 258.965204,113.37509 254.006674,112.530368 C254.21507,112.175463 254.413994,111.815826 254.603445,111.451458 C259.502358,112.581714 262.97236,116.940373 262.972443,121.963733 Z"/>
    <path fill="#EFEFEF" d="M231.393432,340 C254.440012,340 292.101671,333.117383 310,321.298318 C308.064087,310.686729 303.61787,293.51215 299.363117,278.141682 C293.980854,258.566355 259.999557,245 239.725657,245 L220.20343,245 C199.872801,245 165.841865,258.651589 160.523423,278.305047 C156.474316,293.28486 152.127377,309.742056 150,319.401869 C168.437265,332.35028 207.141338,340 231.393432,340 Z"/>
    <path fill="#593A1F" d="M230,233 C260.375661,233 285,208.375661 285,178 C285,147.624339 260.375661,123 230,123 C221.669899,123 213.772328,124.851883 206.696526,128.166413 C187.97046,136.938293 175,155.95444 175,178 C175,208.375661 199.624339,233 230,233 Z"/>
    <path fill="#FDA57D" d="M215.292311,217 L243.764167,217 C246.103553,217 248,218.939561 248,221.33213 L248,251.108303 C248,260.989615 240.167674,269 230.50601,269 L228.49399,269 C218.832326,269 211,260.989615 211,251.108303 L211,221.361011 C211,218.968442 212.896447,217.028881 215.235833,217.028881 L215.292311,217 Z"/>
    <path fill="#000" d="M231.021477,241.99999 C237.180379,242.003987 243.28309,240.8358 249,238.558525 C248.391478,229.260048 240.637275,222.021168 231.262704,222 L229.737296,222 C220.520514,222.006612 212.829215,228.997173 212,238.121289 C218.010504,240.682196 224.482048,242.001819 231.021477,241.99999 Z" opacity=".05"/>
    <circle cx="231" cy="189" r="48" fill="#FDA57D"/>
    <circle cx="214.5" cy="125.5" r="10.5" fill="#593A1F"/>
    <circle cx="251.5" cy="125.5" r="10.5" fill="#593A1F"/>
    <circle cx="231" cy="109" r="21" fill="#593A1F"/>
    <path fill="#593A1F" d="M253.732921,112.000103 C251.69038,111.99626 249.693543,112.60656 248,113.752276 C252.868822,112.035086 258.251494,114.210283 260.575002,118.833973 C262.89851,123.457662 261.440968,129.09332 257.169891,132 C261.885775,130.320292 264.706549,125.47266 263.846217,120.526419 C262.985884,115.580179 258.695341,111.977777 253.691177,112.000103 L253.732921,112.000103 Z"/>
    <path fill="#593A1F" d="M234.857278 84.0000923C230.165248 83.9856811 225.61637 85.6586277 222 88.7286294 231.145059 83.7316807 242.489345 86.6623971 248.243231 95.5083834 253.997118 104.35437 252.289044 116.238301 244.29187 123 252.471194 118.538082 256.639631 108.928625 254.399035 99.7000514 252.158438 90.4714783 244.084862 83.9964387 234.82312 84.0000923L234.857278 84.0000923zM196 144.718726C196 144.718726 201.807782 182.43303 275 161.858424L238.984669 131 196 144.718726z"/>
    <path fill="url(#home-graphic-b)" d="M58.115,38.0668493 C59.2429635,33.5854246 57.466722,28.8790796 53.6468293,26.2279452 C52.6152807,25.6425631 51.6161273,25.0029263 50.6536585,24.3117808 C49.2117904,22.9525762 48.1740353,21.2279333 47.6532927,19.3254795 C46.1495122,14.8663014 45.6818293,9.85863014 43.0484146,5.82684932 C40.652439,2.15835616 35.99,1.08273973 31.8528049,0.719452055 C30.3522404,0.476435546 28.8137901,0.618688801 27.3846341,1.13260274 C25.0821951,2.16547945 23.9813415,4.85808219 23.8734146,7.36547945 C23.7654878,9.87287671 24.427439,12.3517808 24.5929268,14.8378082 C24.7584146,17.3238356 24.305122,20.0876712 22.4343902,21.7830137 C20.5636585,23.4783562 17.9014634,23.6778082 15.4335366,24.019726 C12.2005895,24.4660288 9.0243072,25.249187 5.95756098,26.3561644 C3.38170732,27.2821918 0.510853659,28.9632877 0.388536585,31.6772603 C0.287804878,33.8926027 2.09378049,35.6663014 3.45365854,37.4257534 C6.08533533,40.7365071 7.15679575,45.0054956 6.39646341,49.1506849 C5.51865854,53.2821918 2.5902439,56.8224658 2.07939024,61.0109589 C1.8796553,62.0580205 2.01289082,63.1406397 2.46073171,64.109589 C2.87387564,64.7726452 3.41995855,65.3447928 4.0652439,65.7906849 C5.65536585,67.0087671 7.43256098,67.9846575 8.94353659,69.309589 C12.0878049,72.0663014 13.7858537,76.0624658 15.0953659,79.9945205 C15.224878,80.3720548 15.3328049,80.7567123 15.455122,81.1413699 L12.3684146,81.1413699 C6.06465389,81.1570307 0.958379772,86.2123251 0.942560976,92.4531507 C0.958379772,98.6939763 6.06465389,103.749271 12.3684146,103.764932 L43.2067073,103.764932 C49.5104681,103.749271 54.6167422,98.6939763 54.632561,92.4531507 C54.5814186,86.2456725 49.4985186,81.2325681 43.2282927,81.2054795 L34.7740244,81.2054795 C36.7742683,78.5556164 38.8608537,76.0624658 41.9691463,75.0438356 C45.077439,74.0252055 48.790122,74.6235616 51.2076829,72.4936986 C52.3427517,71.3885849 53.0785842,69.9441295 53.3014634,68.3835616 C53.8132774,65.5986796 53.3353082,62.7242576 51.9487805,60.2487671 C50.977439,58.5320548 49.5528049,56.9720548 49.2434146,55.0273973 C49.087483,53.3368727 49.497029,51.6424621 50.4090244,50.2049315 C52.7258537,45.9594521 56.8558537,42.7041096 58.115,38.0668493 Z" opacity=".7" transform="translate(30 286)"/>
    <path fill="#4DB6AC" d="M61.3316425,289.10892 C59.8844323,288.879934 58.4006228,289.01335 57.0219984,289.49642 C54.7979013,290.468692 53.7405436,293.019145 53.6384539,295.365279 C53.5363642,297.711414 54.1707788,300.050504 54.3676661,302.410729 C54.5645534,304.770955 54.0905655,307.342544 52.2967035,308.948907 C50.5028415,310.555269 47.9214304,310.731406 45.5369065,311.062542 C42.4122632,311.481232 39.3422178,312.218057 36.3780015,313.260722 C33.8913879,314.134358 31.1203816,315.712539 31.0037076,318.270037 C30.9089101,320.383672 32.6517272,322.025262 33.9643091,323.687988 C36.4999912,326.801627 37.5351305,330.814943 36.8082366,334.714117 C35.9623505,338.603206 33.1621757,341.942749 32.6225587,345.888201 C32.4346659,346.889237 32.5775313,347.922017 33.0309175,348.840244 C33.4293644,349.464673 33.955385,350.004064 34.5768474,350.425471 C36.1154851,351.573879 37.8291337,352.496833 39.280266,353.736832 C42.3137886,356.329558 43.9545161,360.077737 45.2233453,363.818871 C46.4671865,367.474829 47.4419002,371.21119 48.140194,375 C50.7507736,373.379547 54.1270261,373.400683 56.8907402,372.076138 C62.8265274,369.257958 64.8245688,361.120464 71.0885015,359.091374 C74.0563951,358.133193 77.6514112,358.696829 80.0067666,356.688876 C81.1053498,355.647875 81.8178931,354.285853 82.0339764,352.813878 C82.5261368,350.185868 82.0596716,347.474282 80.7141024,345.141383 C79.7734187,343.52093 78.4024997,342.055476 78.1035227,340.209568 C77.9518773,338.616796 78.3464679,337.020033 79.2265095,335.665253 C81.4797752,331.70571 85.4612737,328.619803 86.6790581,324.27276 C87.7627518,320.052499 86.0471491,315.622982 82.3621219,313.126859 C81.3570079,312.576713 80.3833129,311.974628 79.4452732,311.323223 C78.0467093,310.046633 77.0377557,308.423552 76.5284244,306.630954 C75.0700001,302.403684 74.6251806,297.71846 72.0802301,293.949144 C69.8269644,290.461646 65.3277252,289.482329 61.3316425,289.10892 Z"/>
    <path stroke="#535461" d="M61.9425691,290 C61.9425691,290 67.5344485,361.719919 53,374" opacity=".6"/>
    <rect width="49" height="21" x="33" y="366" fill="#EFEFEF" rx="10.5"/>
    <path stroke="#535461" d="M31 317.095327C31 317.095327 44.5111836 315.43214 61 326M63 334C68.3327998 325.892033 76.6648457 320.45809 86 319M32 346.622299C32 346.622299 50.4994885 344.537378 59 348M60 355C60 355 69.8657718 351.043816 81 354.259771" opacity=".6"/>
    <path fill="url(#home-graphic-c)" fill-rule="nonzero" d="M38.591,8.11451613 L38.591,0.55483871 L0.462,0.55483871 L0.462,35.5027419 C0.462,39.5705864 3.79031517,42.8682258 7.896,42.8682258 L31.157,42.8682258 C35.2626848,42.8682258 38.591,39.5705864 38.591,35.5027419 L38.591,27.7419355 C44.0671794,27.7419355 48.5065,23.3435303 48.5065,17.9178226 C48.5065,12.4921148 44.0671794,8.09370968 38.591,8.09370968 L38.591,8.11451613 Z M38.591,23.9829032 L38.591,11.8874194 C40.8197809,11.8126068 42.9123481,12.9479968 44.049108,14.8488923 C45.1858679,16.7497879 45.1858679,19.1135992 44.049108,21.0144948 C42.9123481,22.9153903 40.8197809,24.0507803 38.591,23.9759677 L38.591,23.9829032 Z" opacity=".7" transform="translate(383 344)"/>
    <path fill="#EFEFEF" fill-rule="nonzero" d="M420.500139,352 C416.657804,352 413.19381,354.314567 411.723412,357.864422 C410.253014,361.414277 411.065781,365.500336 413.782723,368.217277 C416.499664,370.934219 420.585723,371.746986 424.135578,370.276588 C427.685433,368.80619 430,365.342196 430,361.499861 C430,356.253233 425.746767,352 420.500139,352 Z M420.500139,367.34819 C417.253965,367.34819 414.622421,364.716646 414.622421,361.470473 C414.622421,358.224299 417.253965,355.592755 420.500139,355.592755 C423.746313,355.592755 426.377856,358.224299 426.377856,361.470473 C426.377856,364.716646 423.746313,367.34819 420.500139,367.34819 Z"/>
    <path fill="#000" fill-rule="nonzero" d="M420.500139,352 C416.657804,352 413.19381,354.314567 411.723412,357.864422 C410.253014,361.414277 411.065781,365.500336 413.782723,368.217277 C416.499664,370.934219 420.585723,371.746986 424.135578,370.276588 C427.685433,368.80619 430,365.342196 430,361.499861 C430,356.253233 425.746767,352 420.500139,352 Z M420.500139,367.34819 C417.253965,367.34819 414.622421,364.716646 414.622421,361.470473 C414.622421,358.224299 417.253965,355.592755 420.500139,355.592755 C423.746313,355.592755 426.377856,358.224299 426.377856,361.470473 C426.377856,364.716646 423.746313,367.34819 420.500139,367.34819 Z" opacity=".1"/>
    <path fill="#EFEFEF" d="M386,347 L421,347 L421,379.179372 C421,382.946301 417.928371,386 414.139324,386 L392.860676,386 C389.071629,386 386,382.946301 386,379.179372 L386,347 Z"/>
    <rect width="458" height="15" y="386" fill="#E0E0E0"/>
    <rect width="194.977" height="111.366" x=".369" y=".042" fill="url(#home-graphic-d)" opacity=".7" rx="14.5" transform="translate(131 274)"/>
    <rect width="188" height="110" x="134" y="275" fill="#535461" rx="26.84"/>
    <circle cx="228" cy="329" r="6" fill="#FFF"/>
    <rect width="418" height="6" x="20" y="401" fill="#E0E0E0"/>
    <rect width="418" height="2" x="20" y="401" fill="#000" opacity=".1"/>
    <path fill="#000" d="M413.598639,347 L413.598639,379.208259 C413.598639,382.959234 410.644328,386 407,386 L410.401361,386 C414.045688,386 417,382.959234 417,379.208259 L417,347 L413.598639,347 Z" opacity=".1"/>
    <path fill="#EEE" d="M392.695655,318.936304 C392.081914,318.955579 391.508682,319.24895 391.132087,319.736513 C390.670124,320.579591 391.508765,321.536984 392.276334,322.115707 C393.697759,323.187415 395.183148,324.259124 396.149717,325.738082 C397.116286,327.21704 397.414786,329.310445 396.362931,330.73939 C394.991256,332.611308 391.707764,333.018557 391.387944,335.319159 C391.181837,336.798117 392.454013,338.062733 393.747509,338.805785 C396.931501,340.641979 401.039419,341.12782 403.342128,344 C404.294483,342.028056 406.433727,340.8849 408.558757,340.427637 C410.683788,339.970375 412.894104,339.97752 415.05467,339.648862 C415.776824,339.635629 416.448577,339.274047 416.859879,338.67718 C417.463985,337.448287 415.744061,335.969329 416.341059,334.740436 C416.795915,333.797332 418.11784,333.875924 419.084409,333.497254 C420.662191,332.882808 421.308939,330.846561 420.861191,329.210419 C420.413442,327.574277 419.148373,326.288226 417.819341,325.237952 C414.265779,322.380061 409.930433,320.743919 405.573765,319.522171 C403.548234,318.964883 401.167348,318.093226 399.063639,318.00749 C396.95993,317.921753 394.728292,318.593357 392.695655,318.936304 Z"/>
    <rect width="308" height="211" x="304" fill="#535461" opacity=".1"/>
    <rect width="72.776" height="67.542" x=".697" y=".229" fill="url(#home-graphic-d)" opacity=".5" rx="4.5" transform="translate(331 20)"/>
    <rect width="72" height="65" x="332" y="21" fill="#F5F5F5" rx="4.5"/>
    <rect width="12" height="11" x="338" y="31" fill="#EFEFEF" rx="4.5"/>
    <rect width="47" height="1" x="354" y="32" fill="#E0E0E0" rx=".5"/>
    <rect width="47" height="1" x="354" y="36" fill="#E0E0E0" rx=".5"/>
    <rect width="64" height="1" x="337" y="48" fill="#E0E0E0" rx=".5"/>
    <rect width="64" height="1" x="337" y="53" fill="#E0E0E0" rx=".5"/>
    <rect width="64" height="1" x="337" y="58" fill="#E0E0E0" rx=".5"/>
    <rect width="37" height="1" x="337" y="62" fill="#E0E0E0" rx=".5"/>
    <rect width="64" height="1" x="337" y="65" fill="#E0E0E0" rx=".5"/>
    <rect width="64" height="1" x="337" y="69" fill="#E0E0E0" rx=".5"/>
    <rect width="64" height="1" x="337" y="74" fill="#E0E0E0" rx=".5"/>
    <rect width="37" height="1" x="337" y="78" fill="#E0E0E0" rx=".5"/>
    <rect width="72.49" height="67.542" x=".298" y=".086" fill="url(#home-graphic-d)" opacity=".5" rx="4.5" transform="translate(342 36)"/>
    <rect width="72" height="65" x="343" y="37" fill="#FFF" rx="4.5"/>
    <rect width="12" height="11" x="348" y="48" fill="#EFEFEF" rx="4.5"/>
    <rect width="47" height="1" x="365" y="47" fill="#E0E0E0" rx=".5"/>
    <rect width="47" height="1" x="365" y="52" fill="#E0E0E0" rx=".5"/>
    <rect width="64" height="1" x="348" y="64" fill="#E0E0E0" rx=".5"/>
    <rect width="64" height="1" x="348" y="68" fill="#E0E0E0" rx=".5"/>
    <rect width="64" height="1" x="348" y="73" fill="#E0E0E0" rx=".5"/>
    <rect width="37" height="1" x="348" y="77" fill="#E0E0E0" rx=".5"/>
    <rect width="64" height="1" x="348" y="82" fill="#E0E0E0" rx=".5"/>
    <rect width="64" height="1" x="348" y="85" fill="#E0E0E0" rx=".5"/>
    <rect width="64" height="1" x="348" y="89" fill="#E0E0E0" rx=".5"/>
    <rect width="37" height="1" x="348" y="93" fill="#E0E0E0" rx=".5"/>
    <rect width="39" height="38" x="447" y="47" fill="url(#home-graphic-e)"/>
    <rect width="38" height="36" x="447" y="48" fill="#F5F5F5"/>
    <path fill="url(#home-graphic-f)" fill-rule="nonzero" d="M12.00625,1.91125 L12.00625,0.089375 L5.17083333,0.089375 L5.17083333,1.91125 L0.3825,1.91125 L0.3825,10.84875 L16.7875,10.84875 L16.7875,1.91125 L12.00625,1.91125 Z M6.02083333,0.749375 L11.1491667,0.749375 L11.1491667,1.91125 L6.02083333,1.91125 L6.02083333,0.749375 Z" opacity=".5" transform="translate(457 53)"/>
    <rect width="15" height="9" x="459" y="54" fill="#EFEFEF" opacity=".6"/>
    <polygon fill="#EFEFEF" points="463 53 463 55 463.753 55 463.753 53.57 468.247 53.57 468.247 55 469 55 469 53" opacity=".6"/>
    <rect width="14.043" height="1.325" x=".529" y=".215" fill="#EFEFEF" opacity=".6" transform="translate(459 69)"/>
    <rect width="23" height="2" x="454" y="73" fill="#BDBDBD"/>
    <rect width="87.886" height="101.522" x=".072" y=".028" fill="url(#home-graphic-g)" opacity=".5" transform="translate(503 13)"/>
    <rect width="83" height="99" x="506" y="13" fill="#FFF"/>
    <path fill="url(#home-graphic-h)" fill-rule="nonzero" d="M15.41375,3.02727273 L15.41375,0.647727273 L6.703125,0.647727273 L6.703125,3.02727273 L0.598125,3.02727273 L0.598125,14.7068182 L21.5325,14.7068182 L21.5325,3.02727273 L15.41375,3.02727273 Z M7.7825,1.51363636 L14.3275,1.51363636 L14.3275,3.02727273 L7.7825,3.02727273 L7.7825,1.51363636 Z" opacity=".5" transform="translate(536 27)"/>
    <rect width="20" height="11" x="537" y="30" fill="#EFEFEF"/>
    <polygon fill="#EFEFEF" points="543 29 543 31 544.124 31 544.124 29.571 550.876 29.571 550.876 31 552 31 552 29"/>
    <rect width="58" height="2" x="518" y="58" fill="#E0E0E0"/>
    <rect width="58" height="2" x="518" y="74" fill="#E0E0E0"/>
    <rect width="58" height="2" x="518" y="79" fill="#E0E0E0"/>
    <rect width="25" height="2" x="518" y="71" fill="#E0E0E0"/>
    <rect width="19" height="2" x="559" y="71" fill="#3AD29F" opacity=".6"/>
    <rect width="19" height="2" x="538" y="89" fill="#EFEFEF"/>
    <rect width="52.277" height="42.26" x=".308" y=".677" fill="url(#home-graphic-i)" opacity=".5" transform="translate(452 144)"/>
    <rect width="49" height="41" x="454" y="145" fill="#F2F2F2"/>
    <rect width="49" height="9" x="454" y="144" fill="#EFEFEF"/>
    <rect width="49" height="9" x="454" y="144" fill="#000" opacity=".1"/>
    <rect width="42" height="5" x="458" y="158" fill="#E0E0E0"/>
    <rect width="31" height="1" x="458" y="168" fill="#E0E0E0"/>
    <rect width="20" height="1" x="458" y="170" fill="#E0E0E0"/>
    <rect width="26" height="1" x="458" y="174" fill="#E0E0E0"/>
    <rect width="31" height="1" x="458" y="176" fill="#E0E0E0"/>
    <rect width="10" height="1" x="458" y="180" fill="#E0E0E0"/>
    <rect width="63.912" height="52.792" x=".516" y=".689" fill="url(#home-graphic-d)" opacity=".5" transform="translate(420 127)"/>
    <rect width="63" height="52" x="421" y="128" fill="#FFF"/>
    <rect width="63" height="11" x="421" y="130" fill="#EFEFEF"/>
    <rect width="53" height="6" x="426" y="144" fill="#F5F5F5"/>
    <rect width="38" height="2" x="426" y="157" fill="#E0E0E0"/>
    <rect width="25" height="2" x="426" y="161" fill="#E0E0E0"/>
    <rect width="32" height="2" x="426" y="164" fill="#E0E0E0"/>
    <rect width="38" height="2" x="426" y="168" fill="#E0E0E0"/>
    <rect width="12" height="2" x="426" y="172" fill="#E0E0E0"/>
    <rect width="15" height="2" x="428" y="147" fill="#69F0AE"/>
    <circle cx="333.5" cy="260.5" r="8.5" fill="#535461" opacity=".1"/>
    <circle cx="347.5" cy="231.5" r="8.5" fill="#535461" opacity=".1"/>
  </g>
</svg>
