<svg xmlns="http://www.w3.org/2000/svg" width="374" height="63" viewBox="0 0 374 63">
  <g fill="#F7C0AB" fill-rule="evenodd">
    <path fill-rule="nonzero" d="M106.662754,57.5960069 C106.528926,57.6668374 105.790197,59.5029827 105.388713,60.1186635 C104.94496,60.7051248 104.428564,61.2307225 103.85237,61.6823837 C103.299379,62.0054351 102.679684,62.192044 102.043018,62.227234 C101.577298,62.227234 101.106224,61.7532143 100.908159,61.6823837 C100.710094,61.6115532 100.437085,61.0013209 100.169429,60.6635138 C99.9017737,60.3257066 99.8375363,59.4376007 99.7037085,58.8927505 C99.5698807,58.3479002 99.5698807,57.1873692 99.4360529,56.3700938 C99.3290411,55.6727851 99.2842492,54.9670501 99.3022251,54.2615233 C99.3022251,53.5804605 99.2326347,52.49076 99.2326347,52.0821223 C99.2326347,51.6734846 99.3664625,50.7853787 99.4360529,50.1751464 L99.4360529,48.4697652 C99.4127506,47.9693699 99.4342518,47.4678543 99.5002903,46.971427 C99.5698807,46.5627893 99.5698807,45.2006637 99.5698807,44.6558134 C99.5760149,44.0376057 99.5076998,43.4209621 99.3664625,42.8196681 C99.1985759,42.3173001 98.9740304,41.8364376 98.6973235,41.3867119 C98.4604122,41.0620345 98.1663671,40.7849189 97.8301194,40.5694365 C97.4240732,40.3936719 96.9947705,40.2798439 96.5560787,40.2316294 C96.2884232,40.2316294 95.8227024,40.5694365 95.6192842,40.6402671 C95.4158659,40.7110976 95.2178008,41.0489048 95.083973,41.1142868 C94.7621096,41.375164 94.4710932,41.6731946 94.2167689,42.0023927 C94.0314786,42.2219275 93.8291969,42.4259918 93.6118672,42.612625 C93.3501697,42.8452054 93.1050902,43.096473 92.8784909,43.3645183 C92.7794864,43.5116368 92.6665291,43.6485059 92.5412448,43.773156 C92.4770075,43.838538 92.1397615,43.9747506 92.1397615,44.0455811 L92.1397615,44.3833883 C92.1397615,44.4542188 91.7382781,44.6558134 91.5402129,44.8628565 C91.4128675,44.9951453 91.3207497,45.1582866 91.2725573,45.3368762 L91.0049017,45.6801319 C90.7718566,45.921556 90.5251959,46.1489619 90.2661723,46.3611947 C90.0681072,46.4974073 89.9342794,46.971427 89.4632055,46.971427 C89.5297099,46.6113276 89.5744035,46.2474079 89.5970333,45.8817265 C89.6026009,45.6315342 89.6258578,45.3820744 89.6666238,45.1352816 L89.9342794,43.6369434 C90.0681072,43.1574752 90.1323445,41.7299676 90.4000001,41.0489048 C90.5755723,40.5034759 90.6676523,39.9338 90.6730088,39.359869 L90.6730088,38.8858493 C90.7035683,38.1132548 90.4937512,37.3505551 90.0734603,36.7064483 C89.8958024,36.2056479 89.5954658,35.7593053 89.200903,35.4097047 C88.7904681,35.1826407 88.3297392,35.0663439 87.8626251,35.0718975 C87.681689,35.0571042 87.4996743,35.0793352 87.3273139,35.1372795 C86.8623035,35.4026774 86.415217,35.6993722 85.9890359,36.0253854 L85.1218318,36.9080429 C84.6008212,37.3032776 84.1281691,37.7605729 83.7139634,38.2701685 C83.2925247,38.830579 82.9131646,39.4225084 82.5791037,40.0409318 C82.3799707,40.2756023 82.2008835,40.5271466 82.0437925,40.7928251 C81.9001425,41.0656481 81.7199869,41.3168593 81.5084813,41.53927 C81.1195817,42.0674456 80.7825071,42.6331646 80.5020963,43.2283058 C80.2075654,43.8332055 79.8485305,44.4032806 79.4314739,44.9282385 C79.2334087,45.1352816 78.2966142,46.5627893 78.1627864,46.7698324 C78.1107619,46.8770588 78.0110862,46.9521332 77.8951308,46.971427 C77.8255403,46.971427 77.8255403,46.8352144 77.8255403,46.6990018 C77.8600842,46.2638205 77.9280987,45.8320657 78.0289586,45.4077068 L78.3608515,43.5007309 C78.3074428,42.8561771 78.1252849,42.2295117 77.8255403,41.659137 C77.5578847,41.0489048 77.092164,40.8418617 76.7549179,40.5040545 C76.3982531,40.1542526 75.9099399,39.9793034 75.41664,40.0245863 C74.8170914,40.0245863 74.6832637,40.3678419 74.6832637,40.3678419 L74.0141247,41.1142868 C73.7464691,41.3867119 73.6126413,41.7299676 73.3449857,42.0677747 C73.1623128,42.371791 73.0047473,42.6907151 72.8739118,43.0212627 C72.8257338,43.1029902 72.7186716,43.3209303 72.59555,43.5661129 C71.9157048,44.8628565 71.5784588,46.0451815 70.9360853,47.1566761 C70.288419,48.3976284 69.4780342,49.5432194 68.527185,50.5619901 C68.0215625,51.0094384 67.4848557,51.4191415 66.9212514,51.7879032 L66.5893585,52.1965409 C66.0843796,52.4209904 65.5326277,52.5145877 64.9834249,52.468966 C64.5819416,52.468966 63.3774914,52.468966 62.976008,52.0603283 C61.5039022,50.6273722 61.0328284,48.3117586 60.968591,46.4047827 L60.968591,46.2086366 L62.3657532,45.2987367 C62.8463468,45.0710639 63.2804075,44.7531191 63.645147,44.3615943 C63.7932778,44.2947883 63.9290696,44.2026473 64.0466304,44.0891692 C64.3217647,43.7123202 64.5467591,43.3001135 64.7157694,42.8632561 C64.8629016,42.6446397 64.9969718,42.4172075 65.1172527,42.1821933 C65.1172527,42.1168112 65.2510805,41.571961 65.2510805,41.5011305 C65.2510805,41.4302999 65.5187361,40.6184731 65.5187361,40.5476425 C65.5783441,40.3701867 65.6231126,40.1879216 65.6525639,40.0027923 L65.6525639,39.2563474 C65.6696304,38.2966692 65.4872062,37.344157 65.1172527,36.4612656 C64.6408258,35.5459172 64.3731702,35.001067 63.3721383,35.001067 C62.6452907,34.9818445 61.9348679,35.222872 61.3647213,35.6821298 C59.6022562,37.2760551 58.4228229,39.4311037 58.0190264,41.7953496 L58.0190264,42.8850501 C58.0190264,42.9558806 57.9494359,43.1574752 57.8851986,43.1574752 C57.7997061,43.6302535 57.7549268,44.1097257 57.7513708,44.5904314 C57.7377896,45.5422426 57.8166855,46.4930893 57.9869077,47.4291012 L56.9912289,48.0829215 L52.7997423,50.8071727 L49.6842312,52.5997301 L44.3739443,55.2749448 L39.5561436,57.2200602 C39.5561436,57.2200602 34.2833284,59.2959396 34.1334412,59.3068366 C33.9835541,59.3177336 29.8509518,60.3965371 28.9623352,60.4673677 C28.0737186,60.5381982 24.9582075,61.0721515 22.2013549,61.230158 L21.6660437,61.262849 C18.8288944,61.3718191 16.1416323,61.4208556 15.9114484,61.3772676 C15.6812646,61.3336796 11.8752021,61.3772676 10.2639154,60.6798593 C8.65262875,59.982451 6.37755621,59.3449762 5.31228695,57.7376679 C4.52126409,56.5209903 3.89468162,55.2015118 3.44940402,53.8147461 C3.44940402,53.7057761 3.23527954,52.6433181 3.1710422,51.460993 C3.10882486,50.7187606 3.16852626,49.9711638 3.34769489,49.248901 C3.65929801,48.15873 4.04934533,47.0933918 4.51467328,46.0615271 C5.032858,45.192858 5.63930633,44.382026 6.32402509,43.6423919 C6.93334259,43.1227358 7.58321584,42.6544338 8.2672047,42.2421268 C8.33679515,42.1821933 8.41173872,42.1222597 8.40638561,42.0677747 C8.25649847,42.0677747 7.58735949,42.1712963 7.29293834,42.2421268 C6.85398316,42.4273759 4.20419279,44.5740859 3.85088741,44.8628565 C2.94087104,45.9623454 2.10562979,47.1237581 1.35098416,48.3390011 C0.868117912,49.2479767 0.446048215,50.1890718 0.0876497632,51.1558769 C0.00282678182,51.6357 -0.0205647098,52.1246863 0.0180593089,52.6106271 C0.0454824745,53.3205725 0.184647847,54.0214405 0.430248923,54.6865065 C0.762767097,55.6798904 1.270723,56.6031181 1.92912025,57.4107578 C2.46443143,58.0209901 3.88300608,58.963581 4.27913636,59.3177336 C4.67526663,59.6718863 6.80580516,60.4074341 8.02631466,60.8215203 C9.34798515,61.1575654 10.6863974,61.4212877 12.0357955,61.6115532 C12.3409228,61.7041777 16.3932285,61.9548089 16.7679463,61.9330149 C17.1426642,61.9112208 20.2099973,61.9330149 20.9540798,61.9057723 C21.489391,61.8730813 25.2740411,61.6006562 25.6487589,61.5843107 C26.0234768,61.5679652 30.0918418,60.7888293 31.2748795,60.5599922 C32.9173576,60.2095014 34.5414151,59.7748849 36.1408582,59.2578001 C36.7243474,59.007169 41.1995489,57.4597943 41.5635605,57.2745452 L45.9477591,55.4111574 C45.9477591,55.4111574 49.7270561,53.3625204 49.9465337,53.2971384 C50.1660113,53.2317564 53.501,51.3138835 53.790068,51.1177374 C54.0791361,50.9215913 56.6700422,49.1235855 57.1089974,48.9383364 C57.4791761,48.7317343 57.8367063,48.5024765 58.1796198,48.2518251 C58.332564,48.7813837 58.5444961,49.2914068 58.811287,49.7719573 C59.1205164,50.3253674 59.4788869,50.848793 59.8819093,51.3356775 C61.199587,52.6602245 62.981637,53.395551 64.8335378,53.3788659 C65.5468828,53.303204 66.2451315,53.1195628 66.9051921,52.8340157 C68.3991373,51.9261166 69.6784565,50.6946867 70.6523704,49.227107 C70.8126486,48.9689954 70.9471465,48.6952061 71.0538538,48.4098316 C71.7044585,47.3418204 72.2960047,46.2376904 72.8257338,45.1025906 L72.8578525,45.0698996 C72.9916803,44.933687 73.7304097,43.0267112 73.7304097,43.0267112 L73.9284749,42.4164789 C74.1318931,42.2094358 74.4637861,41.2559478 74.8010321,41.2559478 C74.9348599,41.2559478 74.9990973,41.4629909 74.9990973,41.4629909 C75.1373905,41.615017 75.2302373,41.8040196 75.2667528,42.0078412 L75.2667528,43.1738207 C75.2203663,44.0405339 75.1310341,44.904312 74.9990973,45.7618594 C74.9457442,46.1004444 74.9242344,46.4434364 74.9348599,46.7861779 C74.9521953,47.0822602 74.9287717,47.3793555 74.8652695,47.6688353 C74.8378601,47.7820064 74.816417,47.8965886 74.8010321,48.012091 C74.8197252,48.5433204 74.9097798,49.0694447 75.0686877,49.5758112 C75.1828495,50.0327234 75.3632677,50.4697706 75.6039989,50.8725548 C75.7378267,51.0087673 75.9358918,51.0087673 76.2035474,51.0087673 L76.6050308,51.0087673 C76.8084491,51.0087673 76.9422769,50.5292991 76.9422769,50.5292991 L77.5418254,49.8482363 C77.7257075,49.6180801 77.8837148,49.367708 78.0128992,49.1017915 C78.0690556,48.8832668 78.1594319,48.6753767 78.2805548,48.4861107 C78.3934172,48.3432101 78.4837185,48.183286 78.5482104,48.012091 C78.5955639,47.8315543 78.6877338,47.6664445 78.815866,47.5326227 C79.0452204,47.2603399 79.2461494,46.9645316 79.4154145,46.6499653 L79.7526606,45.9689025 C79.9017254,45.7377483 80.0137534,45.4839524 80.0845535,45.2170092 C80.1198589,44.9932908 80.2121419,44.7828932 80.3522091,44.6067769 C80.4808521,44.4481587 80.5723775,44.2618458 80.6198647,44.0619266 C80.8106796,43.722404 81.0610662,43.4213874 81.3585942,43.1738207 C81.4228315,43.1738207 81.6262497,42.8360136 81.6904871,42.6289705 C81.7547244,42.4219274 82.0277331,42.1549508 82.0277331,42.0187382 C82.0277331,41.8825256 83.1625928,40.6566126 83.3660111,40.2479749 C83.6752271,39.7149905 84.0337274,39.2132686 84.4366335,38.7496367 C84.5008708,38.6134241 84.9023542,38.2701685 85.036182,38.0685739 C85.3164542,37.7603089 85.6308066,37.4860626 85.9729766,37.2512985 C86.1763948,37.1150859 86.4440504,36.6356177 86.7759434,36.6356177 C86.9793616,36.6356177 87.043599,36.9080429 87.043599,37.1150859 C87.0337108,37.3195829 87.0122629,37.5233309 86.9793616,37.7253182 L86.9793616,38.2047864 C86.9994658,38.4098132 86.9813031,38.6168602 86.9258305,38.8150187 L86.9258305,40.3133569 L86.7277654,41.6101005 L86.7277654,43.0376082 L86.5243471,45.0154146 C86.4601098,45.7618594 86.3905193,45.7618594 86.3905193,46.2413276 C86.3905193,46.7207959 86.326282,47.123985 86.326282,47.3964102 C86.326282,47.6688353 86.2566915,48.4207286 86.2566915,48.6223232 C86.2566915,48.8239178 86.4601098,49.9190668 86.4601098,50.0552794 C86.4601098,50.191492 86.9954209,50.6001296 87.1292487,50.6655117 C87.2606156,50.7018042 87.3950282,50.7255176 87.5307321,50.7363422 C87.781198,50.7356198 88.0295352,50.6894953 88.2641085,50.6001296 C88.4675267,50.5292991 88.4675267,50.3930865 88.4675267,50.256874 L88.4675267,49.9844489 C88.5317641,49.6466417 88.8690101,49.5758112 88.8690101,49.5104291 C88.8690101,49.4450471 89.1366657,48.9655789 89.2704935,48.8947484 C89.4043213,48.8239178 89.6719769,48.6931538 89.6719769,48.6223232 C89.6719769,48.5514927 90.1376976,47.7396658 90.1376976,47.7396658 L90.9406644,46.6499653 C91.20832,46.3067097 91.0744922,46.3067097 91.20832,46.1051151 C91.4392703,45.8166894 91.7096805,45.5634789 92.0112868,45.3532217 C92.1451146,45.2170092 92.6161884,44.944584 92.6804258,44.6721589 C92.7445183,44.4638489 92.8607377,44.2760863 93.0176718,44.1273087 C93.1128448,44.036698 93.2260281,43.9679495 93.3495647,43.9257141 C93.6165836,43.6003122 93.86331,43.2582026 94.0882942,42.9013956 C94.2863593,42.6289705 95.4265721,41.4738879 95.9618833,41.3376754 C96.2295389,41.3376754 96.2295389,41.6754825 96.2937763,41.6754825 C96.3698383,42.0110596 96.3933247,42.3567621 96.3633667,42.699801 C96.3633667,43.1084387 96.2295389,43.7895015 96.1599485,44.4705643 C96.090358,45.1516271 95.9618833,45.3532217 95.9618833,45.5602648 L95.9618833,47.123985 C95.9618833,47.4672407 95.8922929,47.3310281 95.8280555,47.4672407 L95.8280555,49.238004 C95.8280555,49.7828543 95.7584651,50.3277045 95.6942277,51.0087673 L95.6942277,51.482787 C95.6715289,52.1666924 95.7163631,52.8511892 95.8280555,53.5259755 C95.8922929,53.5259755 95.8280555,53.7984006 95.9618833,54.2778688 C96.0016958,54.4104174 96.0233129,54.5479317 96.0261207,54.6865065 C96.0252542,54.8258477 96.0488203,54.9642285 96.0957111,55.0951442 C96.1869377,55.4531602 96.2531252,55.8173056 96.2937763,56.1848447 C96.3388408,56.5349189 96.4288269,56.8774641 96.5614319,57.2037147 C96.6952597,57.6123524 96.7648501,57.5469703 96.9629152,57.955608 C97.0979524,58.2582228 97.1881521,58.5795472 97.2305708,58.909096 L97.4339891,59.7263713 C97.4982264,59.9279659 97.8354725,60.135009 97.9693003,60.2003911 C98.1031281,60.2657731 98.2369559,60.7452413 98.3011932,61.0176664 C98.3654306,61.2900916 99.2379878,61.9711544 99.6394712,62.31441 C100.118743,62.5988647 100.639003,62.8047936 101.181167,62.9246423 C101.398613,62.9869168 101.624924,63.0108724 101.850306,62.9954728 C102.316027,62.9954728 102.920929,62.9246423 103.118994,62.9246423 C103.656059,62.7494217 104.155592,62.4720939 104.5911,62.1073669 C105.230596,61.3606499 105.812259,60.5646001 106.330861,59.7263713 C106.636912,59.244186 106.862974,58.7140567 107,58.1572026 C106.994647,57.9392625 106.796582,57.5306248 106.662754,57.5960069 Z M60.8294101,43.718671 C60.8999442,43.221976 60.9446159,42.7218312 60.9632379,42.2203328 C61.1613031,41.1306323 61.2308935,40.1117623 61.4289587,39.0220618 C61.4289587,38.9512313 61.6966143,38.406381 61.6966143,38.340999 L61.6966143,38.0685739 C61.9000325,37.5237236 62.0980976,36.9788734 62.3015159,36.5702357 C62.4353437,35.9545549 62.7029993,35.5459172 63.2383105,35.5459172 C63.7591387,35.5652156 64.2249401,35.8812834 64.4427606,36.3631926 C64.8937181,37.19452 65.1017431,38.1397515 65.0423092,39.0874439 L65.0423092,40.0409318 C65.0233905,40.2281032 64.978327,40.4115692 64.9084814,40.585782 C64.7713691,41.2773712 64.5925945,41.9597223 64.3731702,42.6289705 C64.1055146,43.3100333 62.5691715,44.879202 61.7662047,44.879202 C61.2951309,44.879202 61.0274753,44.8083715 60.8936475,44.4705643 C60.843054,44.2234071 60.8214905,43.971007 60.8294101,43.718671 Z"/>
    <path d="M155.733661,42.5725455 C155.487748,42.6173178 155.271445,42.7645212 155.137062,42.9785572 C154.934645,43.4549443 154.135628,44.943654 153.938537,45.6203402 C153.741446,46.2970264 152.937103,47.7153607 152.670764,48.3270851 C152.611328,48.5634615 152.521792,48.7909443 152.404425,49.0037713 L151.674657,50.3571437 C151.214868,51.1098849 150.679311,51.8120002 150.076624,52.4521643 C149.474698,53.0638886 148.94202,53.399525 148.47859,53.399525 C148.015161,53.399525 147.477156,52.858176 147.146896,51.8458534 C147.077648,51.2341291 146.747388,50.5574428 146.747388,49.951132 C146.66638,49.3227685 146.621913,48.690096 146.614218,48.0564106 C146.614218,47.0386745 146.811309,46.3619883 146.811309,45.0789912 C146.811309,44.6729795 146.880557,43.860956 146.880557,43.4549443 C146.875103,43.266846 146.829674,43.0821729 146.747388,42.9135953 C146.516951,42.608741 146.248342,42.3357604 145.948371,42.1015719 L144.749846,42.1015719 C144.523505,42.1536613 144.329749,42.3013439 144.217169,42.5075836 C143.898706,43.0891683 143.716429,43.7375237 143.684491,44.402305 C143.684491,44.6026041 143.551321,46.0913138 143.551321,46.2970264 C143.551321,46.502739 143.418152,47.2443871 143.418152,47.7857361 C143.215734,48.3920469 142.816226,48.7980587 142.752305,49.4747449 L142.752305,49.8807566 C142.549887,50.3571437 141.154272,52.9935132 140.152838,52.9935132 C140.019668,52.9935132 139.423069,52.5875015 139.423069,50.1514311 C139.388891,47.9571681 139.522462,45.7635214 139.822577,43.5902815 C139.822577,43.5199062 139.955747,43.1138944 139.955747,43.0489326 L139.955747,42.0853314 C140.092455,41.3537835 140.270306,40.6307994 140.488425,39.9199355 C140.645725,39.0910775 140.868393,38.2764256 141.154272,37.4838651 C141.258262,37.1993521 141.39221,36.9270963 141.55378,36.6718416 C141.669864,36.198169 141.84908,35.7428345 142.086458,35.3184692 L142.752305,34.5064458 C143.231132,33.7311153 143.926624,33.1185437 144.749846,32.7470616 C144.984226,32.6618567 145.230729,32.6161421 145.479615,32.6117243 C146.515374,32.6808323 147.489076,33.137994 148.212252,33.8947214 L148.47859,34.100434 C148.47859,34.100434 148.61176,34.5714076 148.61176,34.641783 C149.133233,35.7393797 149.406251,36.9417169 149.410776,38.1605513 C149.39895,39.094143 149.286415,40.0236012 149.07519,40.9322581 C149.07519,41.0026334 148.878099,41.3382698 148.878099,41.4086452 C148.808851,41.8146569 148.47859,42.2206686 148.47859,42.8269795 L148.61176,43.1680293 L149.011268,42.8973549 C149.660224,41.6200216 150.001615,40.204399 150.007376,38.7668622 C150.007376,36.1954546 149.474698,33.7593842 147.477156,32.6766862 C146.770407,32.2537697 145.969262,32.0208788 145.149355,32 C143.615243,32 142.283548,32.9473607 141.154272,34.100434 C139.879399,35.2569699 138.877923,36.6911124 138.224544,38.2958886 C137.531463,39.7861305 137.026736,41.3595191 136.722393,42.9785572 C136.722393,42.9785572 136.722393,43.0110381 136.690432,43.0326921 L135.491907,45.6690616 C135.185249,46.6144049 134.735998,47.505618 134.160213,48.3108446 C133.544649,49.223403 132.805872,50.0434558 131.965581,50.746915 C131.229914,51.231207 130.448289,51.6392624 129.632452,51.9649502 C129.333279,52.0921182 129.020388,52.182971 128.700266,52.2356247 C128.300758,52.1002874 128.167589,51.8296129 128.167589,51.3532258 C128.167589,50.2705279 128.700266,48.5111437 128.700266,47.4988211 C128.720953,46.9360518 128.676254,46.3727669 128.567097,45.8206393 C128.433927,45.0789912 128.370006,44.3319296 127.90125,43.7905807 C127.210121,43.0788312 126.288392,42.6460491 125.307109,42.5725455 C124.504917,42.6874855 123.746386,43.0141287 123.10715,43.5199062 L122.973981,43.7905807 C122.707642,43.9962933 122.308134,43.9962933 122.041795,44.1965924 L121.242778,45.0086159 L120.7101,45.2792903 C120.646179,45.2792903 120.37984,45.6203402 120.310592,45.6853021 C120.241344,45.750264 119.644745,46.2970264 119.314485,46.2970264 C119.112067,46.2970264 119.112067,46.1616892 119.112067,45.9559766 C119.245237,44.5376422 119.980332,43.0489326 120.310592,41.9662346 C120.710759,40.9689724 120.979426,39.9223173 121.109609,38.853478 L121.109609,38.1767918 C121.109609,38.1064164 121.375948,37.5650675 121.375948,37.5001056 C121.508679,36.9692374 121.576662,36.423794 121.578365,35.8760587 C121.578365,34.6580235 121.178857,33.5049501 119.911084,33.0339765 C119.554692,32.8725777 119.171604,32.7807561 118.781807,32.7633021 C118.046712,32.7633021 117.583282,33.5049501 117.247695,33.846 C116.581848,34.6580235 115.585741,35.3347097 114.919893,36.3470323 C114.317968,36.9587566 114.051629,37.9710792 113.45503,38.6477654 L113.188691,39.0537771 C113.127102,39.2467696 113.03732,39.4292578 112.922352,39.5951261 C112.922352,39.6655015 112.522844,39.936176 112.522844,40.0011378 L112.256505,40.5424868 C112.256505,40.6128622 112.123335,41.0188739 112.123335,41.0838358 C112.123335,41.1487977 111.787748,41.4248856 111.723827,41.4898475 L111.52141,41.9662346 L110.658472,43.0489326 C110.125794,43.3845689 110.189715,43.7905807 109.390699,44.6026041 L109.060438,45.3496657 C108.858021,45.4146276 108.66093,45.8910147 108.325343,46.226651 C108.059004,46.4323637 107.995083,46.768 107.792665,46.768 C107.590248,46.768 107.595575,46.7030381 107.595575,46.6326628 L107.659496,45.8206393 L107.995083,43.5199062 C108.030714,43.2654344 108.096905,43.016361 108.192174,42.7782581 L108.458513,40.6128622 C108.517316,39.9596341 108.540434,39.3035949 108.527761,38.6477654 C108.548133,37.8118265 108.503605,36.9755567 108.394591,36.1467331 C108.192174,35.0640352 106.929728,34.4523109 105.997541,34.4523109 C105.339399,34.4246791 104.703848,34.698937 104.266339,35.1993724 L104,36.0113959 C104.005114,36.083879 104.061847,36.1415363 104.133169,36.1467331 C104.33026,35.8760587 104.596599,35.6053842 104.729768,35.6053842 C104.931688,35.6254035 105.080805,35.8058137 105.065355,36.0113959 C105.065355,37.3647683 104.729768,37.9710792 104.729768,39.936176 C104.665847,40.0715132 104.596599,41.4248856 104.266339,43.1842698 C104.266339,43.2492317 104.33026,43.6552434 104.33026,43.7256188 C104.33026,43.7959942 104.266339,44.6729795 104.266339,44.8083167 C104.266339,45.0789912 104.197091,45.4146276 104.197091,45.6853021 L104.197091,47.7153607 C104.197091,47.850698 104.33026,48.6627214 104.33026,48.7980587 C104.399508,49.6804575 104.46343,50.3571437 105.065355,50.8984927 L105.395616,51.0987918 C105.614925,51.3277588 105.890967,51.4923398 106.194632,51.5751789 C106.860479,51.5751789 107.126818,50.6927801 107.925835,49.951132 C108.128252,49.8157947 108.128252,49.2744458 108.192174,49.0687332 C108.458513,48.3270851 108.927269,47.6503989 109.257529,46.9033373 C109.390699,46.6326628 109.657037,45.9559766 109.657037,45.9559766 L110.189715,45.2792903 C110.248011,45.1968518 110.292968,45.1054746 110.322885,45.0086159 C110.392133,44.943654 110.658472,44.1316305 110.722393,44.0612552 L111.05798,43.7905807 C111.50773,42.8773385 112.018522,41.996486 112.586765,41.1542112 L114.317968,38.7181408 L114.717476,37.9061173 C115.331845,36.9300626 116.046053,36.0227695 116.848187,35.1993724 L117.780373,34.2520117 C118.11596,33.846 118.313051,33.6402874 118.44622,33.6402874 C118.579389,33.6402874 118.579389,34.1166745 118.579389,34.1816364 C118.424988,35.2245161 118.157004,36.2467236 117.780373,37.2294311 L117.380865,38.853478 C117.380865,38.9184399 117.114526,39.4597889 117.114526,39.5301642 C116.315509,42.1015719 115.985249,44.8083167 115.516493,47.4446862 C115.341986,48.0868386 115.231345,48.7451707 115.186232,49.409783 C115.186232,49.5451203 115.250154,49.7454194 115.250154,49.8807566 C115.319402,50.492481 115.516493,51.4398417 116.315509,51.5048036 L117.380865,51.5048036 C117.591629,51.3615896 117.772622,51.1776498 117.913542,50.9634546 L119.112067,48.7980587 C119.112067,48.7330968 119.378406,48.4624223 119.378406,48.3920469 C119.624444,47.8149321 119.937387,47.2697265 120.310592,46.768 C120.810832,46.1946599 121.344469,45.6523366 121.908625,45.1439531 C122.817175,44.482267 123.775381,43.8940025 124.774431,43.3845689 C124.903992,43.3291201 125.037555,43.2838744 125.17394,43.2492317 C125.371031,43.2492317 125.440279,43.4549443 125.440279,43.860956 C125.440279,43.9962933 125.371031,44.8083167 125.371031,45.1439531 L125.307109,46.226651 C125.307109,46.2970264 125.237861,47.1090499 125.237861,47.1740118 L125.237861,48.5273842 L125.371031,49.5451203 C125.43931,50.07175 125.551578,50.5915169 125.706617,51.0987918 C125.957019,51.5489775 126.271096,51.9593649 126.638804,52.316827 C127.069941,52.6529381 127.571001,52.8844001 128.103667,52.9935132 L129.232944,52.9935132 C129.7017,52.9935132 131.763163,51.8458534 132.498259,51.4398417 C132.842229,51.1099585 133.154378,50.7474097 133.430445,50.3571437 L133.760705,50.2218065 L134.4958,49.3394077 C134.536756,49.0660525 134.651023,48.809448 134.82606,48.5977596 L135.028478,48.5273842 C135.276635,48.0677804 135.498941,47.5942418 135.694325,47.1090499 C135.896742,46.7301056 136.072526,46.3890557 136.227003,46.0696598 C136.227003,48.094305 136.306904,48.8521936 136.493342,49.5451203 C136.75968,50.5574428 136.557263,51.1691672 137.159189,51.9811906 C137.622618,52.5875015 138.288465,52.7932141 138.890391,53.1992258 C138.890391,53.1992258 139.087482,53.4699003 139.15673,53.4699003 C139.506457,53.5513612 139.863388,53.5967039 140.222086,53.6052376 L140.488425,53.6052376 C141.287441,53.4699003 141.820119,52.4521643 142.219627,51.9108153 C142.777852,51.0523507 143.20359,50.1121635 143.482073,49.1228681 C143.690269,49.9779119 144.101821,50.7679413 144.680598,51.4236012 C145.346445,52.8419355 145.815202,52.8419355 146.481049,53.3183226 C146.54497,53.3183226 147.210817,53.7243343 147.280066,53.7243343 C147.668722,53.9298621 148.105283,54.0234629 148.542512,53.9950088 C149.229581,54.0187275 149.881532,53.6864264 150.273714,53.11261 L150.87564,52.571261 C151.25956,52.2121348 151.594558,51.8025008 151.871748,51.3532258 C151.871748,51.288264 151.940996,50.8118769 151.940996,50.746915 C151.940996,50.6819531 152.404425,50.4762405 152.404425,50.4058651 L152.670764,49.9998534 C153.224537,49.1132714 153.714117,48.1869246 154.135628,47.2281467 L154.934645,45.4687625 C155.137062,44.9923754 155.733661,43.7093783 156,42.8269795 C155.994673,42.7620176 155.861504,42.5725455 155.733661,42.5725455 Z"/>
    <path fill-rule="nonzero" d="M193.535993,34.7669733 C193.43357,34.7020535 193.321228,34.6557617 193.203806,34.630092 C193.071985,34.630092 193.008712,34.695795 193.008712,34.7669733 C193.008712,35.1776172 193.335626,34.7669733 193.335626,35.6539641 C193.335626,36.2726675 192.676525,37.8440648 191.426868,37.8440648 C191.110413,37.2777958 190.845621,36.6820526 190.635947,36.064608 C190.332123,35.5487607 189.82477,35.1982075 189.249198,35.1064389 C188.907968,35.0762589 188.569378,35.1897748 188.30957,35.4214591 C188.049761,35.6531435 187.890543,35.9835478 187.867721,36.3383706 C187.834146,36.5987019 187.934148,36.8583054 188.131362,37.022777 C188.224648,37.436981 188.4889,37.7874887 188.853737,37.9809461 C189.249198,37.9809461 189.512838,38.1890057 190.5674,38.4627683 C190.816021,39.0729802 190.97253,39.7193561 191.031408,40.3791064 C191.219235,41.1390096 191.307908,41.9216687 191.295048,42.7060885 C191.23772,46.1179935 190.354665,49.4600908 188.727189,52.4246605 C188.516405,52.8181568 188.339942,53.2304437 188.199908,53.6565922 C187.609354,54.47788 186.818432,55.0911082 186.02751,55.0911082 C184.772581,55.0911082 183.84984,52.216601 183.586199,50.9846693 C183.586199,50.7109067 183.391105,49.7527376 183.391105,49.6158563 C183.391105,49.3420937 183.259285,47.9075777 183.259285,47.6338152 L183.259285,45.6462987 C183.34721,44.3848398 183.500343,43.1291974 183.718019,41.8848007 C184.11348,40.0341656 184.841128,38.1178274 185.236589,36.2726675 L185.236589,33.3981603 C185.268232,32.8852149 185.128561,32.3766298 184.841128,31.9581691 C184.445667,31.2737626 184.050206,31 183.718019,31 C183.385832,31 182.927098,31.4818222 182.399817,32.0950504 C181.879082,32.7667254 181.538884,33.5695872 181.413801,34.4220324 C181.3232,34.8742008 181.256313,35.3311446 181.213434,35.7908454 L180.817973,38.8186597 C180.703636,39.3770149 180.550319,39.9259898 180.359239,40.4612352 L179.831958,43.2700394 C179.802447,43.4775075 179.75839,43.6824616 179.700138,43.8832676 C179.041036,45.5970215 178.381935,47.5790626 177.654287,49.2928165 L177.522467,49.5665791 C176.931912,50.7985107 175.481889,54.0836618 174.622421,54.0836618 C174.35878,54.0836618 174.163686,53.5361367 174.163686,53.1911958 C174.163686,52.4410863 174.22696,52.1673237 174.22696,51.3460359 C174.217662,50.0850768 174.305825,48.8253761 174.490601,47.5790626 C174.886061,45.3889619 175.676983,43.543802 175.74553,41.3537013 C175.74553,40.8718791 175.808803,40.5324135 175.808803,40.2586509 C175.805882,39.6146909 175.740521,38.972673 175.613709,38.3423127 C175.613709,38.2711345 175.481889,38.0685502 175.481889,37.9973719 C175.218249,36.8366185 174.490601,36.7654402 173.567859,36.7654402 C172.908757,36.7654402 172.117836,36.9734998 171,38.3423127 C171,38.3423127 171.063274,38.5448971 171.195094,38.5448971 C171.340435,38.4007953 171.524151,38.3054106 171.722375,38.2711345 C172.054562,38.2711345 172.054562,39.3661848 172.054562,40.2586509 C172.054562,40.4612352 172.186382,40.9430574 172.186382,41.0799387 L172.186382,42.3775734 C172.151582,42.5407266 172.107566,42.7016121 172.054562,42.8593955 C172.195761,43.4631735 172.261334,44.0833483 172.249656,44.7045554 C172.249656,45.3232589 172.186382,46.0076654 172.186382,46.0076654 C172.249656,47.1684187 172.318203,49.9060447 172.318203,49.9060447 C172.464655,50.2269756 172.53171,50.5807685 172.513297,50.935392 C172.908757,52.9174332 173.504585,55.1075339 174.22696,55.1075339 C174.530801,55.0912408 174.826051,54.9971964 175.086428,54.8337714 C176.931912,52.8517302 177.854654,50.6616294 178.840669,47.9897065 C179.172856,46.8289531 179.763411,45.5970215 180.095598,44.4307928 L180.622879,42.651336 C180.622879,42.9250986 180.817973,44.5019711 180.817973,44.912615 L180.817973,45.3889619 C180.991163,47.9343499 181.570263,50.4321972 182.531637,52.7805519 C182.531637,52.8517302 182.927098,53.3280771 182.927098,53.3992554 C182.927098,53.4704336 183.127464,53.8756023 183.127464,53.9467806 C183.30873,54.4295973 183.661727,54.8216296 184.11348,55.0418309 C184.445667,55.2444152 184.508941,55.5893561 184.841128,55.6550591 L185.104768,55.6550591 C185.168042,55.6550591 185.563503,55.9288217 185.63205,55.9288217 L186.422971,56 C186.554791,56 187.213893,55.5893561 187.277166,55.5893561 L189.059376,53.8098993 C189.154271,53.6780163 189.242278,53.5409377 189.323017,53.3992554 C189.386291,53.2623741 189.718478,52.7148489 189.718478,52.6436706 C191.03668,50.042926 192.223063,47.1027157 192.223063,44.0201489 C192.223063,43.6806833 192.154516,43.3357424 192.154516,42.9962768 C192.154516,42.8593955 191.890876,40.4612352 191.759055,39.6399474 C191.759055,39.5742444 191.627235,39.0267192 191.563961,38.479194 C192.042208,38.3492335 192.505424,38.1656456 192.945438,37.9316689 L193.209078,37.3841437 C193.678573,36.9424086 193.962538,36.3271182 194,35.6703898 C193.9885,35.3108592 193.817119,34.9771825 193.535993,34.7669733 Z M189.713205,37.5045992 C189.662332,37.3637568 189.570104,37.2430873 189.449564,37.1596583 C188.989051,37.1304512 188.621057,36.7506733 188.590096,36.2726675 C188.576969,36.1236922 188.62829,35.9763656 188.73016,35.8705841 C188.832031,35.7648026 188.97391,35.7115116 189.117377,35.7251424 C189.713205,35.7251424 190.171939,37.022777 190.372306,37.7071835 C190.108666,37.5703022 189.908299,37.6414805 189.713205,37.5045992 Z M269.644541,55.17035 C268.971325,56.3074639 268.163464,56.4415575 266.951674,56.4415575 C265.674912,56.4852551 264.427352,56.0551707 263.450946,55.2347149 C262.574444,54.4529335 261.763862,53.6008123 261.027365,52.6869362 C260.488792,52.0164681 260.28952,51.2119064 259.815575,50.5414383 L258.738428,49.2005021 L258.199854,48.3959404 L257.391994,47.6611074 L256.988064,47.0550042 L255.178457,45.3117872 L255.043814,45.0435999 C255.582387,44.9095063 256.18559,44.5072255 256.724163,44.3731318 C257.751752,44.1662679 258.691329,43.6516105 259.417031,42.898102 C259.670072,42.6558829 259.940035,42.4318321 260.224891,42.227634 L260.494178,42.0935403 L260.628821,41.8253531 L261.302038,41.154885 C261.420322,40.9917652 261.511264,40.810623 261.571325,40.6185105 L261.840611,40.3503233 C262.450193,39.5530898 262.82334,38.6017332 262.917758,37.604086 C262.917758,36.3275147 261.775983,35.5926817 261.102766,35.3888594 C260.669244,35.2354297 260.21576,35.1451032 259.756332,35.1206722 C259.35847,35.1222586 258.966184,35.2139685 258.60917,35.3888594 L257.467394,35.9949626 C257.262737,36.1290562 256.320233,37.1320765 255.916303,37.5343573 L255.512373,38.0707318 L254.704512,38.8752935 C254.235953,39.4813966 253.832023,40.2162297 253.358079,40.8866978 C252.474441,42.0365438 251.749867,43.2993718 251.203785,44.6413191 C251.128572,44.8703355 251.038623,45.0942887 250.934498,45.3117872 C250.799854,45.5799744 250.600582,46.1860776 250.261281,46.3845361 L249.991994,46.5186297 C249.79161,46.370964 249.648854,46.1586526 249.588064,45.9178903 C249.588064,45.6497031 249.722707,45.3815159 249.722707,45.1776936 L249.722707,44.3892231 C249.722707,44.2551295 249.991994,42.9141933 249.991994,42.7800997 C249.991994,39.4974879 249.991994,38.6929262 250.062009,38.0224581 C250.453474,37.5227865 250.880016,37.0513832 251.338428,36.6117932 L251.742358,36.2095124 C252.829535,34.8971598 253.819527,33.5078678 254.704512,32.0526102 L254.973799,31.784423 C255.119542,31.6141955 255.254449,31.4350541 255.377729,31.2480485 L255.377729,30.8457676 C255.377729,30.7814027 255.717031,30.5132154 255.781659,30.4434868 C255.940612,30.2605577 256.076282,30.0587853 256.18559,29.8427474 L256.320233,29.5745601 C257.181476,28.3622498 257.904053,27.0579248 258.474527,25.6858452 L258.474527,25.4176579 C258.474527,25.3479293 258.743814,25.1494707 258.743814,25.1494707 C259.217758,24.4092739 259.417031,23.6047122 259.820961,22.8698792 L260.359534,21.9312239 L261.167394,19.5175387 C261.167394,19.4478101 261.506696,18.9114356 261.571325,18.712977 C262.131506,17.633282 262.539288,16.4817145 262.783115,15.2909079 L263.052402,14.5560749 C263.391703,13.8158781 263.391703,12.9469514 263.590975,12.1423897 C263.590975,12.072661 263.860262,11.2037344 263.860262,11.1340057 L263.860262,10.5976312 C263.930277,9.92716315 264.334207,9.32642374 264.46885,8.65595565 C264.725577,7.44218108 264.860882,6.20605408 264.87278,4.96569927 C264.871237,4.53851597 264.826124,4.11259373 264.738137,3.69449177 L264.738137,2.88993006 L264.603493,2.62174282 L264.199563,1.41490025 C263.59968,0.484789576 262.545147,-0.0536310359 261.436681,0.00423538718 C260.734527,-0.00814276855 260.04036,0.15408997 259.417031,0.476244924 C258.316746,0.964781329 257.313451,1.64605295 256.454876,2.4876492 L255.108443,3.82858538 L254.300582,5.03542795 C253.120429,6.78476849 252.17019,8.67748823 251.473071,10.6673599 C251.338428,11.0696408 250.600582,12.5446706 250.530568,13.0113164 C250.126638,15.0227206 248.914847,18.5091547 248.376274,20.9925685 C248.312394,21.2118536 248.26735,21.4361508 248.24163,21.6630366 L247.703057,24.6130962 C247.461366,25.5388942 247.281449,26.4796042 247.164483,27.4290622 C246.965211,29.6389251 246.760553,31.720058 246.62591,33.9299208 C246.491266,35.7428666 246.561281,37.6201772 246.356623,39.4277592 C245.893553,39.6465338 245.388064,39.7618638 244.875546,39.7656751 C244.676274,39.7656751 244.54163,40.0338624 244.54163,40.167956 C244.561508,40.3705869 244.741991,40.5191769 244.94556,40.5005081 C245.424803,40.4311136 245.89698,40.3198333 246.356623,40.167956 L246.356623,41.1709762 C246.356623,41.3050699 246.491266,42.5119124 246.491266,42.646006 L246.491266,43.970851 C245.888064,45.1616023 245.554148,46.2450788 244.94556,47.2749178 C244.293947,48.4965656 243.478624,49.6243357 242.52198,50.6272582 C242.012262,51.0664951 241.472376,51.4697563 240.906259,51.8341008 L240.566958,52.2363816 C240.058901,52.4573396 239.503787,52.5494809 238.951237,52.5045689 C238.547307,52.5045689 237.335517,52.5045689 236.931587,52.102288 C235.450509,50.6916231 234.981951,48.4120316 234.911936,46.534721 L234.911936,45.5960656 C235.251237,45.5317007 236.059098,45.5317007 236.25837,45.461972 C236.771724,45.2527693 237.231719,44.9320876 237.604803,44.5233167 C237.755246,44.4601306 237.892306,44.3691302 238.008734,44.2551295 C238.346744,43.6176168 238.705992,42.9914991 239.085881,42.3778188 C239.085881,42.3134539 239.220524,41.7770794 239.220524,41.7073507 C239.220524,41.637622 239.489811,40.8384241 239.489811,40.7686954 C239.552384,40.594776 239.597486,40.4151054 239.624454,40.2323209 L239.624454,39.4974879 C239.641625,38.5527386 239.458089,37.6150438 239.085881,36.7458868 C238.617322,35.8072315 238.348035,35.270857 237.335517,35.270857 C236.604512,35.2537483 235.890362,35.4908263 235.315866,35.9413251 C233.543192,37.5175443 232.35706,39.6438628 231.949782,41.975538 L231.949782,43.0482869 C231.949782,43.1180156 231.885153,43.3164741 231.815138,43.3164741 C231.78821,43.4827502 231.766667,43.6651175 231.745124,43.8528486 C231.605095,44.1371271 231.486608,44.3892231 231.416594,44.5984091 C231.416594,44.5984091 229.66623,48.2833018 229.596215,48.551489 C228.994507,49.8454094 228.273305,51.0808116 227.441921,52.2417454 C227.377293,52.3061103 226.768705,53.3788593 225.960844,53.3788593 C225.422271,53.3788593 224.749054,52.9122135 224.345124,51.367455 C223.859566,49.299799 223.588855,47.1878846 223.537263,45.0650549 C223.472635,44.5286804 223.267977,41.0422464 223.267977,40.2376847 C223.267977,40.0392261 223.267977,38.8967485 223.337991,37.6899059 C223.607278,37.1535314 223.80655,36.552792 224.011208,36.0164175 C224.415138,36.4830633 224.749054,37.0194378 224.883697,37.0891665 C225.018341,37.0194378 225.287627,36.8209793 225.287627,36.617157 C225.287627,36.552792 225.222999,36.4186984 225.018341,36.2148761 L224.21048,35.2762208 L224.549782,34.5413877 C224.953712,34.0693782 225.896215,31.2534122 226.030859,29.8481111 C226.364774,28.5071749 227.172635,24.61846 227.576565,23.2077951 C228.035648,21.2839882 228.395171,19.3379591 228.653712,17.3774046 C228.723726,17.0394887 229.192285,12.5500343 229.192285,12.5500343 C229.192285,12.5500343 229.396943,9.86816196 229.396943,8.32340347 L229.396943,7.58857044 C229.192285,6.58018643 228.993013,4.50441722 228.384425,4.43468854 C228.085778,4.29808185 227.767955,4.2076459 227.441921,4.1665013 C226.904924,4.20157196 226.411459,4.47285234 226.095488,4.90669808 C225.152984,6.11354064 223.80655,8.05521624 223.472635,9.2620588 L221.7869,15.162178 C221.7869,15.162178 220.844396,20.729745 220.645124,21.8668589 C220.51048,22.8752429 220.171179,28.9738207 220.171179,29.177643 C220.171179,29.3814653 219.971907,33.2648165 219.971907,33.3989101 L219.971907,34.6057527 C219.143214,34.6268853 218.323965,34.7864398 217.548326,35.0777622 C216.670451,35.6785016 215.189374,36.3489697 214.316885,37.3573537 C213.302687,38.5786161 212.421662,39.9037484 211.688646,41.3104336 C211.112057,42.4953455 210.657339,43.7353227 210.331441,45.0114175 C210.019392,45.7889636 209.659665,46.5466793 209.254294,47.2802815 C208.602681,48.5019293 207.787357,49.6296994 206.830713,50.632622 C206.322009,51.0731097 205.782032,51.4764393 205.214993,51.8394645 L204.881077,52.2417454 C204.373021,52.4627033 203.817906,52.5548446 203.265357,52.5099326 C202.861426,52.5099326 201.649636,52.5099326 201.245706,52.1076518 C199.764629,50.6969869 199.290684,48.4173954 199.226055,46.5400847 L199.226055,45.6014294 C199.559971,45.5370645 200.367831,45.5370645 200.572489,45.4673358 C201.085153,45.2568736 201.544887,44.9363735 201.918923,44.5286804 C202.067956,44.4629137 202.204576,44.3722061 202.322853,44.2604932 C202.599664,43.8895065 202.82603,43.4837123 202.99607,43.0536506 C203.144099,42.8384351 203.278986,42.6145409 203.4,42.3831826 C203.4,42.3188176 203.534643,41.7824431 203.534643,41.7127145 C203.534643,41.6429858 203.80393,40.8437878 203.80393,40.7740591 C203.863901,40.5993639 203.908943,40.419934 203.938574,40.2376847 L203.938574,39.5028516 C203.955744,38.5581023 203.772208,37.6204075 203.4,36.7512506 C202.936827,35.8072315 202.662154,35.270857 201.655022,35.270857 C200.923745,35.2519336 200.208992,35.4892116 199.635371,35.9413251 C197.858996,37.5145937 196.672095,39.6422919 196.269287,41.975538 L196.269287,43.0482869 C196.269287,43.1180156 196.199272,43.3164741 196.134643,43.3164741 C196.04863,43.7818978 196.003578,44.2539112 196,44.727139 C196,46.7385433 196.269287,48.4120316 197.077147,49.8226965 C197.388261,50.3674977 197.748815,50.8827808 198.154294,51.3620912 C199.480002,52.6660334 201.272912,53.3899211 203.136099,53.3734955 C203.853791,53.2990106 204.556295,53.1182262 205.220378,52.837121 C206.723428,51.9433454 208.010544,50.7310718 208.990393,49.286322 C209.151648,49.0322256 209.286966,48.7626954 209.394323,48.4817603 C209.566667,48.1599356 209.771325,47.8488384 210.019068,47.4090114 C210.019068,47.7308361 210.019068,48.047297 210.019068,48.3852129 C210.007558,49.7121263 210.11934,51.0372547 210.352984,52.3436565 C210.826929,53.5504991 211.026201,54.4194257 211.769432,55.0898938 C212.308006,55.5619034 212.711936,55.9641842 213.115866,55.9641842 C213.310643,55.9462071 213.496829,55.8757456 213.65444,55.7603619 C214.724688,54.7913438 215.715243,53.7384678 216.616594,52.6118438 C217.528019,51.4437834 218.316673,50.1856521 218.97016,48.8572224 C219.713392,47.4465576 219.982678,47.1140054 220.451237,46.1753501 C220.515562,45.8767433 220.605659,45.5842265 220.720524,45.3010597 C220.989811,47.5162863 221.329112,49.6617842 221.663028,50.2625236 C222.336245,51.4693661 222.810189,53.8186863 224.355895,54.2853321 C224.820704,54.3967275 225.294883,54.4649603 225.772344,54.4891544 C226.074636,54.4855393 226.372457,54.4159653 226.644833,54.2853321 C227.626273,53.2478673 228.484654,52.1014336 229.203057,50.8686267 C229.811645,49.9299714 230.818777,47.7147448 231.562009,46.3094437 C231.615866,46.1968051 231.675109,46.0734389 231.739738,45.9500728 C231.783114,47.2934402 232.135011,48.6090444 232.768413,49.7958778 C233.083271,50.3383173 233.443603,50.8532819 233.84556,51.3352725 C235.173261,52.6361969 236.964859,53.3595546 238.827365,53.3466768 C239.546918,53.2728767 240.251299,53.0920765 240.917031,52.8103023 C242.42008,51.9165267 243.707196,50.7042531 244.687045,49.2595033 C244.846188,49.0042256 244.981401,48.7349025 245.090975,48.4549416 C245.430277,47.8273835 245.877293,47.226644 246.555895,45.8642529 C246.555895,46.2772612 246.609753,46.7009971 246.636681,46.9370018 C246.66361,47.1730066 246.771325,48.277938 246.771325,48.4120316 C246.826716,49.697357 246.985202,50.9762146 247.245269,52.2363816 C247.379913,52.3704753 248.117758,53.0409433 248.387045,53.0409433 C249.534207,53.0409433 249.534207,51.8984657 249.733479,51.0295391 C249.932751,50.1606124 250.272052,49.0181348 250.541339,48.277938 C250.601731,47.9574254 250.691881,47.643191 250.810626,47.3392827 C250.92231,47.1028457 251.057637,46.8782212 251.214556,46.6688146 C251.419214,46.2665337 251.284571,45.7998879 251.483843,45.461972 L251.75313,45.1937848 C252.115039,44.6117041 252.387348,43.9789114 252.56099,43.3164741 L252.56099,43.0482869 C252.765648,42.5816411 253.169578,42.3134539 253.36885,41.8414443 C254.17671,40.6346018 255.253857,39.7656751 255.792431,38.4891039 C256.670306,37.5504485 257.478166,36.5474283 258.619942,35.9413251 C258.936806,35.787421 259.280691,35.6963356 259.63246,35.6731379 C260.305677,35.6731379 260.305677,37.0140741 260.305677,37.4163549 C260.324951,38.2703452 260.256374,39.1240567 260.101019,39.9641337 L259.158515,41.8414443 C258.700447,42.3673642 258.205514,42.8602767 257.677438,43.3164741 C257.343523,43.4505678 256.869578,43.8528486 256.600291,43.9869422 C255.754736,44.418352 254.84582,44.713449 253.907424,44.8612326 C253.304221,44.9953262 252.900291,44.9953262 252.900291,45.5317007 C252.900291,45.6657943 252.96492,45.9339816 253.099563,45.9339816 C253.284143,45.9126039 253.465171,45.8675319 253.638137,45.7998879 C253.77278,45.8642529 253.907424,46.3362624 254.042067,46.534721 C254.200902,46.742842 254.336354,46.9676737 254.445997,47.2051891 C254.445997,47.2749178 254.58064,47.8112922 254.58064,47.8756572 C254.695189,48.1967454 254.830104,48.5102619 254.984571,48.8143125 L255.119214,49.2165933 L255.523144,49.7529678 C255.792431,50.4234359 256.535662,51.8984657 257.273508,52.4348402 C257.542795,52.7030274 258.754585,53.8455051 259.023872,54.0439636 L260.235662,54.8485253 L260.504949,54.9826189 L260.774236,55.2508062 L261.582096,55.653087 C261.652111,55.653087 261.921397,55.7871806 261.986026,55.7871806 C262.489147,56.1208311 263.031859,56.3910791 263.601747,56.5917424 C264.582467,56.8951339 265.607648,57.0311456 266.633916,56.9940232 C268.518923,56.9940232 269.19214,56.725836 270,55.653087 C269.983843,55.5726309 269.913828,55.17035 269.644541,55.17035 Z M250.121252,33.3774551 L250.121252,32.3047062 C250.191266,31.4357795 250.460553,30.4971242 250.525182,29.6925625 L250.659825,27.6811582 C251.13377,24.2590891 252.140902,20.9067486 252.814119,17.4900432 C253.018777,16.6157528 253.083406,15.7468262 253.352693,14.9422645 L253.487336,14.6740772 C253.487336,14.6043486 253.62198,14.3361613 253.62198,14.2717964 C253.756623,13.8695155 254.095924,12.2603921 254.160553,11.9922049 C254.416569,11.1227159 254.731458,10.271506 255.103057,9.44442612 C255.307715,8.83832297 255.372344,8.16785488 255.64163,7.56711547 C255.980932,6.82691869 256.314847,6.29054422 256.718777,5.55571119 C257.058079,4.94960803 257.257351,4.27913994 257.661281,3.67840053 L258.199854,3.14202606 C259.077729,1.80108987 260.084862,0.46015369 261.700582,0.46015369 C263.316303,0.46015369 263.790247,1.73136119 264.059534,2.47155797 L264.059534,2.87383882 C264.059534,2.93820376 264.194178,3.34048461 264.194178,3.41021329 C264.24784,3.74172999 264.269482,4.07760507 264.258806,4.41323356 C264.258806,5.08370165 264.194178,5.62007613 264.124163,6.42463784 C264.124163,6.62846014 263.924891,8.16785488 263.924891,8.37167718 C263.854876,8.77395803 263.655604,9.17623889 263.58559,9.57851974 C263.452099,10.3043727 263.272209,11.0209965 263.047016,11.7240176 L263.047016,12.2603921 L262.777729,13.0649538 L262.777729,13.6013283 C262.777729,13.6656932 262.643086,14.0679741 262.643086,14.1377028 L262.508443,14.40589 C262.508443,14.4702549 262.373799,15.140723 262.373799,15.2104517 C262.373799,15.2801804 262.039884,15.6127326 262.039884,15.6770975 C261.635953,16.6854815 261.366667,17.6241368 261.027365,18.2946049 L260.623435,19.5014475 C260.623435,19.5658124 260.354148,19.8339997 260.354148,19.9037284 C260.090213,20.5147323 259.865358,21.141755 259.680932,21.781039 L259.007715,23.1219752 C259.007715,23.1863401 258.873071,23.7227146 258.873071,23.7924433 C258.738428,23.9265369 258.404512,24.6613699 258.199854,24.9992859 L256.584134,28.2175327 C256.25511,28.6386805 255.963197,29.087324 255.711645,29.5584689 C255.64163,29.7569274 255.506987,29.8910211 255.506987,30.0948434 C255.2377,30.4273955 254.83377,30.8296764 254.564483,31.2319572 C254.365211,31.5001445 254.230568,31.9024253 254.02591,32.1706126 C253.352693,33.1789966 252.480204,34.1820168 251.736972,35.1206722 C251.232831,35.8362967 250.645275,36.4898713 249.986608,37.0677115 C249.986608,36.531337 249.92198,36.4616084 249.92198,36.0593275 C249.92198,35.6570467 249.986608,35.0563072 250.121252,33.3774551 Z M223.531878,31.9024253 C223.531878,30.8296764 223.801164,26.340222 223.935808,25.4659317 C224.070451,24.5916413 224.609025,18.6271571 224.743668,18.0264177 C224.878311,17.4256783 225.4869,12.2603921 225.89083,11.1876432 C226.090102,9.9808006 226.833333,6.22617928 227.50655,5.68980481 C227.642481,5.51968607 227.832361,5.4005498 228.045124,5.35188889 C228.31441,5.35188889 228.379039,5.75416974 228.449054,6.55873146 C228.623889,7.64739877 228.735381,8.74522225 228.782969,9.84670698 C228.793421,10.772761 228.681147,11.6961409 228.449054,12.5929443 C227.91048,15.2104517 227.975109,18.8309794 227.571179,20.2362805 C227.167249,21.6415817 226.359389,25.8038476 226.025473,26.7425029 C225.89083,27.6811582 224.878311,31.9024253 224.474381,32.706987 C224.291385,33.4343938 224.06661,34.1507383 223.801164,34.8524849 L223.467249,34.6540264 C223.531878,33.3774551 223.531878,32.2403413 223.531878,31.9024253 Z M199.096798,43.8528486 C199.167762,43.3638803 199.212706,42.8715158 199.231441,42.3778188 C199.430713,41.3050699 199.500728,40.3020496 199.7,39.2293006 C199.7,39.159572 199.969287,38.6231975 199.969287,38.5588326 L199.969287,38.2906453 C200.173945,37.7542708 200.373217,37.2178964 200.577875,36.8156155 C200.712518,36.2095124 200.981805,35.8072315 201.520378,35.8072315 C202.044381,35.8262296 202.513021,36.1373807 202.732169,36.6117932 C203.185875,37.4301884 203.395167,38.3607157 203.335371,39.2936656 L203.335371,40.2323209 C203.316337,40.4165807 203.270999,40.5971927 203.200728,40.7686954 C203.06278,41.4495261 202.882916,42.1212624 202.662154,42.7800997 C202.392868,43.4505678 200.847162,44.9953262 200.039301,44.9953262 C199.565357,44.9953262 199.29607,44.9255976 199.161426,44.5930454 C199.110525,44.349733 199.08883,44.1012592 199.096798,43.8528486 Z M220.235808,44.9953262 C219.697234,45.8642529 218.081514,49.4847806 217.203639,50.6916231 C216.465793,51.8341008 214.376128,54.3818795 213.907569,54.5159731 C213.503639,54.5159731 212.965066,53.9795987 212.965066,52.4348402 C213.066113,50.5801912 213.314635,48.736439 213.708297,46.9209106 C213.977584,45.4458808 214.451528,42.5655499 215.054731,41.0905201 C215.657933,39.6154903 216.067249,38.0707318 216.939738,37.0677115 C217.812227,36.0646913 218.286172,35.3888594 219.433333,35.3244945 C219.632606,35.3244945 219.837263,35.2547658 220.036536,35.2547658 C220.10655,36.9979828 220.241194,39.347303 220.241194,39.6154903 C220.241194,39.8836775 220.305822,41.8253531 220.575109,43.970851 L220.235808,44.9953262 Z M234.777293,43.8528486 C234.850933,43.3641975 234.89589,42.8716844 234.911936,42.3778188 C235.116594,41.3050699 235.181223,40.3020496 235.385881,39.2293006 C235.385881,39.159572 235.655167,38.6231975 235.655167,38.5588326 L235.655167,38.2906453 C235.85444,37.7542708 236.059098,37.2178964 236.25837,36.8156155 C236.393013,36.2095124 236.6623,35.8072315 237.200873,35.8072315 C237.725276,35.8249913 238.19451,36.1365362 238.412664,36.6117932 C238.867956,37.4297423 239.079106,38.360219 239.021252,39.2936656 L239.021252,40.2323209 C238.999787,40.4161474 238.95453,40.5964355 238.886608,40.7686954 C238.746135,41.4489352 238.566311,42.1205227 238.348035,42.7800997 C238.078748,43.4505678 236.527656,44.9953262 235.719796,44.9953262 C235.251237,44.9953262 234.981951,44.9255976 234.847307,44.5930454 C234.790386,44.3505574 234.765045,44.1017809 234.771907,43.8528486 L234.777293,43.8528486 Z"/>
    <path d="M269.173913,32 C270.28,32 271,31.2852174 271,30.0434783 C271,29.9130435 270.932174,29.5217391 270.801739,29.4591304 C270.346841,29.3707065 269.907378,29.2160156 269.497391,29 C268.845217,29 268.193043,29.1304348 268,29.9808696 L268,30.3721739 L268.453913,31.6765217 C268.659248,31.8490685 268.908547,31.9610724 269.173913,32 Z"/>
    <path fill-rule="nonzero" d="M373.879375,33.6735328 C373.488131,33.2272844 373.053644,32.8215835 372.582388,32.462478 C372.37423,32.301004 371.829816,32.0587931 371.557609,31.9242314 C371.110644,31.761997 370.654352,31.6271889 370.191237,31.5205465 C369.767609,31.359046 369.334447,31.224225 368.89425,31.1168616 C368.755478,31.1168616 367.319719,30.8746507 367.255671,30.8746507 C367.191622,30.8746507 364.933905,31.0361246 364.111947,31.1975986 C363.237004,31.3953843 362.377257,31.6562061 361.539324,31.9780561 C361.400551,32.0587931 359.281607,32.7854259 359.217558,32.7854259 C359.153509,32.7854259 356.687634,33.6735328 356.687634,33.6735328 C356.687634,33.6735328 353.341089,35.1267985 353.068882,35.2882724 L351.467664,36.1763793 C351.467664,36.1763793 349.487492,37.387434 349.332707,37.387434 C349.177923,37.387434 345.23359,39.9710175 345.025432,40.0517545 L340.931652,42.473864 C340.931652,42.473864 336.693762,44.8152365 336.490941,44.9767105 L332.076918,47.5872063 C332.076918,47.5872063 326.269835,50.4130007 326.067014,50.4937377 L321.076552,52.5928993 C321.076552,52.5928993 318.621351,53.4810061 318.349144,53.5617431 C318.178348,53.6101853 317.356389,53.7555119 316.667866,53.8577787 L316.705228,53.814719 C316.564683,53.8070806 316.425233,53.7854454 316.288911,53.7501294 C315.961003,53.6584643 315.64551,53.5265016 315.34953,53.3572094 C315.008092,53.2529927 314.717119,53.0247697 314.532909,52.716696 C314.338983,52.5139898 314.170483,52.2880283 314.031194,52.0438878 C313.724805,51.5007905 313.615358,50.8671052 313.721625,50.2515268 C313.405996,48.5319492 313.227512,46.7896312 313.187886,45.0413001 C313.123837,44.5030535 312.921016,41.0044509 312.921016,40.197081 C312.921016,39.9979298 312.921016,38.8514647 312.990402,37.6404099 C313.257272,37.1021633 313.454756,36.4993272 313.657577,35.9610806 C314.057881,36.4293551 314.388799,36.9676017 314.522234,37.0375738 C314.655669,36.9676017 314.922539,36.7684505 314.922539,36.5639168 C314.922539,36.4993272 314.85849,36.3647656 314.655669,36.1602319 L313.85506,35.2183004 L314.191316,34.4809026 C314.59162,34.0072456 315.525664,31.1814512 315.659099,29.7712452 C315.990017,28.4256288 316.790626,24.5233413 317.19093,23.1077528 C317.645893,21.1772314 318.002189,19.2244101 318.258409,17.2570127 C318.327795,16.9179174 318.792148,12.4127937 318.792148,12.4127937 C318.792148,12.4127937 318.994969,9.72156092 318.994969,8.17141083 L318.994969,7.43401304 C318.792148,6.42210951 318.594664,4.33909533 317.991539,4.26912328 C317.695573,4.13203979 317.380602,4.0412882 317.057495,4 C316.525318,4.03519306 316.036283,4.30742028 315.723147,4.74278025 C314.789104,5.95383501 313.454756,7.90228755 313.123837,9.1133423 L311.453233,15.0340544 C311.453233,15.0340544 310.492503,20.5941414 310.300357,21.7513715 C310.166922,22.763275 309.830666,28.8831384 309.830666,29.0876721 C309.830666,29.2922058 309.633183,33.1891109 309.633183,33.3236725 L309.633183,34.5347273 C308.811928,34.5559337 308.000033,34.716045 307.231356,35.0083842 C306.361361,35.6112204 304.893578,36.2840286 304.028921,37.2959321 C303.023826,38.521457 302.150709,39.8512144 301.424273,41.2628092 C301.109135,41.9199204 300.829405,42.5937091 300.586303,43.2812338 C300.116612,44.2231653 299.582873,45.5041921 299.11852,46.3761515 C299.11852,46.4461236 298.782264,47.1189318 298.782264,47.1835214 C298.718215,47.3880551 298.451346,47.6571783 298.38196,47.9908912 C298.38196,48.0608633 298.248525,48.3299865 298.248525,48.3945761 C298.051041,48.5291378 297.917606,48.9328227 297.447916,49.201946 C296.247003,50.7520961 295.51578,51.4894938 294.77922,51.4894938 C294.04266,51.4894938 293.914562,50.5475624 293.647693,50.0792879 C293.578306,49.1373564 293.578306,48.4645482 293.578306,47.5872063 C293.578306,45.907877 293.647693,44.2231653 293.781127,42.543836 C293.781127,42.473864 293.914562,41.8010558 293.914562,41.7364662 L293.914562,39.1797951 C293.914562,38.9752614 294.047997,37.22596 294.047997,37.0268088 L294.047997,36.6877135 C294.016959,35.8894065 293.88238,35.0986365 293.647693,34.335576 C293.56749,33.7482095 293.337617,33.191855 292.980518,32.7208364 C292.713649,32.3171514 292.313344,31.7089328 291.710219,31.6443432 L290.90961,31.6443432 C290.760094,31.7616465 290.625627,31.8972491 290.509306,32.0480282 L290.375871,32.3171514 L289.842132,32.5862747 C288.844039,33.3236725 288.374349,34.6046993 287.57374,35.5466308 L287.30687,35.8157541 L286.639696,37.1613705 C286.372827,37.4304937 286.239392,37.699617 286.105957,37.8341787 C285.775039,38.3724252 285.572218,38.9106718 285.305348,39.4489183 C284.905044,40.3208778 284.371305,41.1982196 284.040386,42.1401511 C283.773517,42.7429873 283.570696,43.3512059 283.239777,44.0240141 C283.170391,44.2231653 282.903522,44.4922886 282.770087,44.4922886 C282.636652,44.4922886 282.439169,44.4922886 282.369782,44.427699 C282.342375,44.1559879 282.297807,43.886317 282.236348,43.6203292 C282.211362,42.9070664 282.005554,42.2121579 281.63856,41.6019046 C281.10482,41.1982196 280.768565,40.7245627 280.170777,40.5254114 C279.958912,40.4262433 279.734352,40.3574005 279.503603,40.3208778 C278.702994,40.3208778 278.03582,41.1282476 277.29926,42.473864 C277.289891,42.6177474 277.243937,42.7567734 277.165825,42.8775489 L276.973679,43.2758514 L276.898955,43.2758514 C276.434602,44.2177828 275.900863,45.4988096 275.431172,46.3707691 C275.431172,46.4407411 275.100254,47.1135493 275.100254,47.1781389 C274.939138,47.4323758 274.804966,47.7029856 274.69995,47.9855087 C274.69995,48.0554808 274.566515,48.3246041 274.566515,48.3891937 C274.363694,48.5237553 274.16621,48.9274402 273.69652,49.1965635 L273.232167,49.8047821 C272.603869,50.4131493 271.76541,50.7509793 270.894389,50.7467136 C269.159736,50.7467136 269.159736,47.248111 269.159736,46.1016458 L269.159736,44.7560294 C269.134566,44.4432829 269.148914,44.1285784 269.202435,43.8194804 C269.202435,43.7548908 269.33587,42.947521 269.33587,42.8775489 L269.33587,41.3327813 C269.33587,41.2628092 269.60274,40.6599731 269.60274,40.590001 C269.60274,40.520029 269.736175,39.9171928 269.736175,39.8526033 C269.736175,39.7880137 269.869609,39.3789463 269.869609,39.3143567 C270.200528,38.3024532 270.200528,37.4304937 270.467397,36.4885623 C270.467397,36.219439 270.536784,35.4766587 270.536784,35.4766587 C270.303018,35.1761035 270.034213,34.905029 269.736175,34.6692889 C269.533485,34.5544275 269.299906,34.5073172 269.069001,34.5347273 C268.397997,34.5184138 267.757372,34.8165837 267.334348,35.3420971 C266.931217,35.9452662 266.678531,36.6377117 266.597788,37.3605217 C266.533739,37.699617 266.330918,38.9106718 266.330918,39.109823 C266.197484,40.3908498 266,41.7364662 266,42.947521 C266,45.7033433 266.667174,48.6636994 268.59931,51.0212193 C268.935566,51.5594659 269.933658,51.8285892 270.467397,51.8285892 C270.928643,51.7965134 271.38051,51.6816813 271.801746,51.4894938 C272.004566,51.4249043 273.269528,50.5475624 273.669833,50.2784391 L273.936702,50.0093158 C275.271051,48.4645482 275.671355,47.4526447 276.738833,45.5687817 C276.980218,45.0936694 277.194072,44.6048384 277.379321,44.1047511 L277.475394,44.0240141 L277.875698,43.0121105 L277.939747,42.543836 C277.939747,42.4092744 278.142568,42.2747128 278.206616,42.2747128 C278.473486,41.7364662 278.676307,41.4673429 278.943177,41.4673429 C279.343481,41.4673429 279.476916,41.8010558 279.610351,42.6783977 C279.743527,43.0901961 279.810205,43.5209036 279.807834,43.954042 C279.76404,44.1537352 279.742556,44.3577458 279.743785,44.5622606 C279.674399,45.1005072 279.540964,45.7033433 279.540964,45.837905 L279.540964,46.5107132 C279.549143,47.9962424 279.867394,49.4633902 280.475008,50.8166856 C280.504985,50.9129893 280.550031,51.0038429 280.608443,51.0858089 L281.142182,51.0858089 C281.275617,51.0858089 281.611873,51.0212193 281.675921,50.8166856 C281.942791,50.2138495 282.145612,49.3365076 282.343095,48.798261 C282.47653,48.3945761 282.7434,47.9908912 282.876835,47.5872063 L283.544009,45.5687817 C283.639582,45.0217029 283.77335,44.482114 283.944313,43.954042 C284.052115,43.7378497 284.141397,43.5127611 284.211183,43.2812338 C284.271579,43.0258591 284.361133,42.7784075 284.478052,42.543836 L285.011792,41.6019046 C285.011792,41.5319325 285.145226,41.1282476 285.145226,41.063658 C285.25162,40.7817424 285.385723,40.5112715 285.545531,40.2562882 C285.694138,39.7526444 285.872367,39.2583761 286.07927,38.7761101 C286.613009,37.8341787 287.349569,36.8222751 287.947357,35.9503157 C288.283613,35.6112204 288.283613,35.2075355 288.481097,35.0083842 C288.683918,34.6692889 289.148271,34.335576 289.281706,33.9318911 L290.749488,32.4517131 C290.991936,32.6445071 291.118972,32.9495275 291.085744,33.2590829 C291.056962,33.7127045 290.989099,34.1629409 290.882923,34.6046993 C290.882923,34.7392609 290.749488,35.6811924 290.749488,35.9503157 C290.749488,36.0848773 290.616054,36.8922472 290.616054,37.0268088 C290.502899,37.3790946 290.413735,37.7387625 290.349184,38.1033019 C290.349184,38.2378636 290.215749,39.3143567 290.215749,39.58348 C290.215749,40.1863161 290.082314,42.6783977 290.082314,43.1466722 L290.082314,46.6452748 C290.1517,47.79174 290.41857,49.7401925 291.219179,50.6175344 C291.937951,51.7357961 293.164272,52.4167767 294.485663,52.4314253 C295.686576,52.4314253 296.690006,51.2203706 297.62405,50.0093158 C298.491058,48.9889985 299.229661,47.8645061 299.823055,46.6614222 C299.769739,47.237488 299.748356,47.8161063 299.759007,48.3945761 C299.7476,49.7261208 299.858378,51.0558742 300.089925,52.3668357 C300.559616,53.5778905 300.757099,54.4498499 301.493659,55.1226581 C302.027399,55.5963151 302.427703,56 302.828007,56 C303.021036,55.9819602 303.20555,55.9112527 303.361747,55.7954663 C304.422389,54.8230661 305.404053,53.7665153 306.297312,52.635959 C307.200557,51.4638218 307.982131,50.2012993 308.629753,48.8682331 C309.366313,47.4526447 309.633183,47.1189318 310.097536,46.1770003 C310.161283,45.8773514 310.250571,45.5838136 310.364405,45.2996584 C310.631275,47.5226167 310.967531,49.6756029 311.298449,50.2784391 C311.965623,51.4894938 312.435314,53.8470138 313.967145,54.3152883 C314.427782,54.4270725 314.897705,54.4955434 315.370879,54.519822 L315.552351,54.519822 L315.685786,54.519822 C315.893944,54.519822 316.646516,54.439085 316.753264,54.439085 C317.109381,54.4442852 317.461304,54.3611067 317.778043,54.196874 C317.986202,54.116137 319.283188,53.7931891 319.283188,53.7931891 L321.263361,53.1472932 C321.263361,53.1472932 322.490961,52.5821344 322.629733,52.5013974 C322.768505,52.4206604 324.065492,51.9362385 324.065492,51.9362385 L325.565299,51.2903426 L327.887065,50.2138495 C327.887065,50.2138495 330.022022,49.1642687 330.075395,49.1642687 C330.128769,49.1642687 331.575203,48.5183728 331.575203,48.5183728 C331.575203,48.5183728 333.010961,47.630266 333.080347,47.630266 C333.149733,47.630266 334.788313,46.7421592 334.788313,46.7421592 L336.154685,45.7733154 L337.862651,44.8852086 C337.862651,44.8852086 338.930129,43.9971017 339.020865,43.9971017 C339.111601,43.9971017 340.659445,43.3512059 340.659445,43.3512059 C341.064683,43.1385272 341.453614,42.8956415 341.822996,42.624573 C342.235782,42.2758348 342.668884,41.9523091 343.119982,41.6557292 L344.486355,40.8483594 L345.9915,39.7987786 L347.491307,38.7491978 L349.065838,38.1033019 L350.496259,37.2959321 L351.729196,36.6500362 L353.29839,35.7619294 L354.936969,34.8738226 L356.372728,34.2279267 L358.897314,33.2590829 L360.333073,32.855398 C360.333073,32.855398 361.357852,32.3709761 361.427238,32.3709761 C361.496624,32.3709761 362.724225,31.9672912 362.793611,31.9672912 C362.862997,31.9672912 365.798563,31.2406583 365.798563,31.2406583 L368.050942,31.2406583 C368.447578,31.3797775 368.836055,31.5415121 369.214494,31.7250802 C369.700361,31.8317639 370.179739,31.9665483 370.650252,32.1287651 C370.910665,32.429301 371.093941,32.7897068 371.183992,33.1783459 C371.317385,33.6398102 371.524722,34.076167 371.797792,34.4701377 C372.05027,34.9759339 372.212853,35.5224546 372.278157,36.0848773 C372.342206,36.6500362 372.480978,36.8115102 372.683799,36.8115102 C373.164164,36.8115102 373.916736,35.4389815 373.916736,35.3582445 C373.916736,35.2775075 373.986123,34.6316116 373.986123,34.4701377 C374.022984,34.199754 373.986079,33.9243518 373.879375,33.6735328 Z M313.161199,31.8273471 C313.161199,30.7508539 313.428069,26.2457303 313.561503,25.3683884 C313.694938,24.4910465 314.228677,18.5057447 314.362112,17.9029086 C314.495547,17.3000725 315.098672,12.1167581 315.498977,11.040265 C315.69646,9.82921023 316.433021,6.06148432 317.100195,5.52323776 C317.234905,5.35252526 317.423081,5.23297318 317.633934,5.18414243 C317.900803,5.18414243 317.964852,5.58782735 318.034238,6.39519718 C318.207504,7.48766423 318.317995,8.5893194 318.365157,9.69464859 C318.375514,10.6239348 318.264248,11.5505375 318.034238,12.450471 C317.500499,15.0771142 317.564548,18.7102784 317.164243,20.1204844 C316.763939,21.5306904 315.96333,25.7074837 315.632412,26.6494152 C315.498977,27.5913467 314.495547,31.8273471 314.095243,32.6347169 C313.913889,33.3646625 313.691131,34.0835072 313.428069,34.7877031 L313.09715,34.5885519 C313.161199,33.3075251 313.161199,32.1664424 313.161199,31.8273471 Z M309.894715,44.9497982 C309.360976,45.8217576 307.759758,49.4549219 306.889763,50.6659766 C306.15854,51.8124418 304.087632,54.3691129 303.623279,54.5036746 C303.222974,54.5036746 302.689235,53.965428 302.689235,52.4152779 C302.788459,50.5597132 303.032961,48.7149598 303.420458,46.8982507 C303.687328,45.4180727 304.157018,42.5276886 304.754806,41.0475106 C305.352594,39.5673326 305.758236,38.0171825 306.622893,37.0106614 C307.487551,36.0041404 307.957241,35.3259497 309.094106,35.2613601 C309.29159,35.2613601 309.49441,35.1913881 309.691894,35.1913881 C309.76128,36.9406894 309.894715,39.2982093 309.894715,39.5673326 C309.894715,39.8364559 309.958764,41.7849084 310.225633,43.9378946 L309.894715,44.9497982 Z"/>
  </g>
</svg>
